<svg width="87" height="89" viewBox="0 0 87 89" fill="none" xmlns="http://www.w3.org/2000/svg">
<path fill-rule="evenodd" clip-rule="evenodd" d="M85.351 10.3835C86.1438 10.3835 86.7867 9.73683 86.7867 8.93872V1.44481C86.7867 0.646698 86.1438 0 85.351 0H1.68231C0.889526 0 0.246643 0.646698 0.246643 1.44481V8.93872C0.246643 9.73683 0.889526 10.3835 1.68231 10.3835H4.39594V55.4048H1.68231C0.889526 55.4048 0.246643 56.0515 0.246643 56.8496V64.3435C0.246643 65.1416 0.889526 65.7883 1.68231 65.7883H42.081V70.2381L26.4133 86.2872C25.8577 86.8565 25.8657 87.7713 26.4313 88.3302C26.9967 88.8902 27.9061 88.8812 28.4616 88.312L34.0167 82.6218H53.0166L58.5717 88.312C59.127 88.8812 60.0366 88.8893 60.6019 88.3302C61.1676 87.771 61.1757 86.8562 60.6201 86.2872L44.9523 70.2381V65.7883H85.351C86.1438 65.7883 86.7867 65.1416 86.7867 64.3435V56.8496C86.7867 56.0515 86.1438 55.4048 85.351 55.4048H82.6374V10.3835H85.351ZM50.1956 79.7321H36.8375L43.5164 72.8904L50.1956 79.7321ZM83.9153 62.8984V58.2941H81.2017H5.83154H3.11792V62.8984H83.9153ZM7.26721 55.4045V10.3835H79.7661V55.4045H7.26721ZM3.11792 2.88961V7.49391H83.9153V2.88961H3.11792Z" fill="#6F9CD6"/>
</svg>
