<svg width="84" height="84" viewBox="0 0 84 84" fill="none" xmlns="http://www.w3.org/2000/svg">
<path fill-rule="evenodd" clip-rule="evenodd" d="M76.5294 17.5278V42.8128C80.699 43.5167 83.8878 47.1433 83.8881 51.5102C83.8881 56.3797 79.9272 60.3406 75.0577 60.3406C70.6908 60.3406 67.0642 57.1515 66.3604 52.9818H52.9818V66.3604C57.1515 67.0642 60.3406 70.6908 60.3406 75.0577C60.3406 79.9272 56.3797 83.8881 51.5102 83.8881C47.1433 83.8881 43.5167 80.699 42.8128 76.5294H17.5278C16.8236 80.699 13.1973 83.8881 8.83035 83.8881C3.96088 83.8881 0 79.9272 0 75.0577C0 70.6905 3.18915 67.0642 7.35876 66.3604V41.0753C3.18915 40.3715 0 36.7448 0 32.3779C0 27.5084 3.96088 23.5475 8.83035 23.5475C13.1973 23.5475 16.8236 26.7367 17.5278 30.9063H30.9063V17.5278C26.7367 16.8239 23.5475 13.1973 23.5475 8.83035C23.5475 3.96121 27.5084 0 32.3779 0C36.7448 0 40.3711 3.18915 41.0753 7.35876H66.3604C67.0645 3.18915 70.6908 0 75.0577 0C79.9269 0 83.8878 3.96121 83.8881 8.83035C83.8881 13.1973 80.699 16.8239 76.5294 17.5278ZM80.9445 8.83035C80.9445 5.58438 78.3044 2.94357 75.0577 2.94357C71.8107 2.94357 69.171 5.58438 69.171 8.83035C69.171 12.0763 71.8111 14.7172 75.0577 14.7172C78.3044 14.7172 80.9445 12.0763 80.9445 8.83035ZM26.4908 8.83035C26.4908 5.58438 29.1309 2.94357 32.3775 2.94357C35.6242 2.94357 38.2643 5.58438 38.2643 8.83035C38.2643 12.0763 35.6242 14.7172 32.3775 14.7172C29.1309 14.7172 26.4908 12.0763 26.4908 8.83035ZM42.8128 33.8495H33.8495V42.8128C37.5394 43.4362 40.4522 46.349 41.0753 50.0386H50.0386V41.0753C46.3487 40.4519 43.4359 37.5391 42.8128 33.8495ZM32.3779 45.6234C35.6246 45.6234 38.2647 48.2643 38.2647 51.5102C38.2647 54.7562 35.6246 57.397 32.3779 57.397C29.1312 57.397 26.4911 54.7562 26.4911 51.5102C26.4907 48.2643 29.1312 45.6234 32.3779 45.6234ZM8.83035 26.4911C5.58368 26.4911 2.94357 29.1319 2.94357 32.3779C2.94357 35.6238 5.58368 38.2647 8.83035 38.2647C12.0771 38.2647 14.7172 35.6238 14.7172 32.3779C14.7172 29.1319 12.0771 26.4911 8.83035 26.4911ZM8.83035 80.9445C5.58368 80.9445 2.94357 78.3037 2.94357 75.0577C2.94357 71.8118 5.58368 69.171 8.83035 69.171C12.0771 69.171 14.7172 71.8118 14.7172 75.0577C14.7172 78.3037 12.0771 80.9445 8.83035 80.9445ZM17.5278 73.5861H42.8125C43.4355 69.8962 46.3487 66.9834 50.0383 66.3604H50.0386V52.9818H41.0753C40.3711 57.1515 36.7448 60.3406 32.3779 60.3406C27.5084 60.3406 23.5475 56.3797 23.5475 51.5102C23.5475 47.1433 26.7367 43.5166 30.9063 42.8128V33.8495H17.5278C16.9047 37.5394 13.9915 40.4522 10.302 41.0753V66.3604C13.9919 66.9837 16.9047 69.8966 17.5278 73.5861ZM57.397 75.0577C57.397 78.3037 54.7569 80.9445 51.5102 80.9445C48.2635 80.9445 45.6234 78.3037 45.6234 75.0577C45.6234 71.8118 48.2635 69.171 51.5102 69.171C54.7569 69.171 57.397 71.8118 57.397 75.0577ZM45.6234 32.3779C45.6234 35.6238 48.2635 38.2647 51.5102 38.2647C54.7569 38.2647 57.397 35.6238 57.397 32.3779C57.397 29.1319 54.7569 26.4911 51.5102 26.4911C48.2635 26.4911 45.6234 29.1319 45.6234 32.3779ZM66.3604 50.0386H52.9818V41.0753C57.1515 40.3715 60.3406 36.7448 60.3406 32.3779C60.3406 27.5084 56.3797 23.5475 51.5102 23.5475C47.1433 23.5475 43.517 26.7367 42.8128 30.9063H33.8495V17.5278C37.5391 16.9047 40.4522 13.9919 41.0753 10.302H66.3604C66.9834 13.9915 69.8962 16.9044 73.5861 17.5278V42.8128C69.8962 43.4359 66.983 46.3487 66.3604 50.0386ZM69.171 51.5102C69.171 54.7562 71.8111 57.397 75.0577 57.397C78.3044 57.397 80.9445 54.7562 80.9445 51.5102C80.9445 48.2643 78.3044 45.6234 75.0577 45.6234C71.8111 45.6234 69.171 48.2643 69.171 51.5102Z" fill="#6F9CD6"/>
</svg>
