<svg xmlns="http://www.w3.org/2000/svg" xmlns:xlink="http://www.w3.org/1999/xlink" width="78" height="78" viewBox="0 0 78 78"><defs><path id="2a2ia" d="M654.52 1209.21l-6.52-1.3a24.44 24.44 0 0 0-1.65-4l3.69-5.54a4.16 4.16 0 0 0-.52-5.23l-2.8-2.8a4.14 4.14 0 0 0-5.2-.52l-5.54 3.7a24.35 24.35 0 0 0-3.99-1.66l-1.3-6.53a4.15 4.15 0 0 0-4.06-3.33h-3.95a4.15 4.15 0 0 0-4.05 3.33l-1.3 6.53c-1.38.43-2.72.99-4 1.66l-5.53-3.7a4.14 4.14 0 0 0-5.21.52l-2.8 2.8a4.16 4.16 0 0 0-.51 5.23l3.68 5.54a24.45 24.45 0 0 0-1.65 4l-6.52 1.3a4.15 4.15 0 0 0-3.32 4.06v3.96c0 1.97 1.4 3.68 3.32 4.06l4.22.85a1.23 1.23 0 0 0 .49-2.42l-4.22-.84a1.68 1.68 0 0 1-1.35-1.65v-3.96c0-.8.57-1.49 1.35-1.64l7.24-1.46c.45-.09.82-.43.94-.87.47-1.7 1.15-3.32 2-4.85.24-.4.22-.9-.04-1.29l-4.1-6.16a1.69 1.69 0 0 1 .21-2.12l2.8-2.8a1.68 1.68 0 0 1 2.11-.2l6.15 4.1c.38.25.88.27 1.28.05a21.87 21.87 0 0 1 4.85-2.01c.44-.13.78-.5.87-.95l1.45-7.26c.15-.78.85-1.35 1.64-1.35h3.95c.8 0 1.5.57 1.65 1.35l1.45 7.26c.09.46.43.82.87.95 1.69.47 3.32 1.15 4.84 2 .4.23.9.21 1.29-.04l6.14-4.1a1.68 1.68 0 0 1 2.12.2l2.8 2.8c.56.57.65 1.46.2 2.12l-4.1 6.16c-.25.39-.27.88-.04 1.29a21.97 21.97 0 0 1 2 4.85c.13.44.5.78.95.87l7.24 1.46c.78.15 1.35.84 1.35 1.64v3.96c0 .8-.57 1.5-1.35 1.65l-7.24 1.45c-.46.1-.82.43-.95.88a21.97 21.97 0 0 1-2 4.85c-.23.4-.21.9.05 1.29l4.1 6.15c.44.67.35 1.56-.22 2.12l-2.79 2.8c-.56.57-1.45.66-2.12.21l-6.14-4.1a1.23 1.23 0 0 0-1.36 2.05l6.14 4.1a4.11 4.11 0 0 0 5.22-.51l2.8-2.8a4.16 4.16 0 0 0 .5-5.23l-3.68-5.54a24.46 24.46 0 0 0 1.65-4l6.52-1.3a4.15 4.15 0 0 0 3.33-4.07v-3.96c0-1.97-1.4-3.67-3.33-4.06z"/><path id="2a2ib" d="M628.76 1224.7h-11.47a1.23 1.23 0 0 0 0 2.46h11.47c1.13 0 2.05.92 2.05 2.06v1.64c0 1.13-.92 2.05-2.05 2.05h-11.47a1.23 1.23 0 0 0 0 2.46h11.47c1.13 0 2.05.92 2.05 2.06v1.64c0 1.13-.92 2.05-2.05 2.05h-11.47a1.23 1.23 0 0 0 0 2.46h11.47c1.13 0 2.05.92 2.05 2.06v1.64c0 1.13-.92 2.05-2.05 2.05h-11.47a1.23 1.23 0 0 0 0 2.46h11.47c1.13 0 2.05.92 2.05 2.06v1.64c0 1.13-.92 2.05-2.05 2.05h-22.27a4.34 4.34 0 0 1-3.08-1.27 6.8 6.8 0 0 0-4.83-2.01h-3.01v-13.55a1.23 1.23 0 1 0-2.46 0v16.42c0 .23-.18.41-.4.41H589v-16.83a1.23 1.23 0 1 0-2.45 0v16.83h-3.7a.41.41 0 0 1-.4-.4v-27.92c0-.23.18-.42.4-.42h9.84c.23 0 .41.19.41.42v6.56a1.23 1.23 0 1 0 2.46 0v-3.7h2.96a4.5 4.5 0 0 0 4.28-3.08l.46-1.37a41.7 41.7 0 0 0 2.13-13.2c0-1.13.92-2.05 2.05-2.05a3.67 3.67 0 0 1 3.69 3.7v13.13a1.23 1.23 0 1 0 2.46 0v-13.13a6.12 6.12 0 0 0-6.15-6.16 4.52 4.52 0 0 0-4.5 4.52c0 4.22-.68 8.4-2.02 12.4l-.45 1.38a2.05 2.05 0 0 1-1.95 1.4h-2.96v-.4a2.87 2.87 0 0 0-2.87-2.88h-9.83a2.87 2.87 0 0 0-2.87 2.88v27.91a2.87 2.87 0 0 0 2.87 2.87h9.83a2.87 2.87 0 0 0 2.87-2.87v-.41h3c1.17 0 2.27.46 3.1 1.3 1.3 1.28 3 1.98 4.82 1.98h22.27c2.48 0 4.5-2.02 4.5-4.51v-1.64a4.5 4.5 0 0 0-1.41-3.29 4.5 4.5 0 0 0 1.41-3.28v-1.64a4.5 4.5 0 0 0-1.41-3.29 4.5 4.5 0 0 0 1.41-3.28v-1.64a4.5 4.5 0 0 0-1.41-3.29 4.5 4.5 0 0 0 1.41-3.28v-1.65a4.52 4.52 0 0 0-4.5-4.51z"/><path id="2a2ic" d="M618.43 1216.23a6.32 6.32 0 1 1 0 0zm2.43-.38a3.86 3.86 0 1 0 7.62-1.2 3.86 3.86 0 0 0-7.62 1.2z"/><path id="2a2id" d="M635.78 1227.16c.32 0 .65-.13.89-.38a16.57 16.57 0 0 0 4.42-14.1 16.5 16.5 0 0 0-2.95-7.18 1.23 1.23 0 1 0-1.99 1.44 14.06 14.06 0 0 1 2.51 6.12c.69 4.41-.69 8.79-3.77 12.02a1.23 1.23 0 0 0 .89 2.08z"/><path id="2a2ie" d="M634.91 1203.68c.41-.55.3-1.32-.24-1.73a16.46 16.46 0 0 0-12.57-3.16c-5.14.8-9.53 3.9-12.03 8.48a1.23 1.23 0 0 0 1.08 1.82c.43 0 .85-.23 1.08-.64a14.08 14.08 0 0 1 10.25-7.22c3.82-.6 7.62.36 10.71 2.69.55.4 1.32.3 1.72-.24z"/></defs><g><g transform="translate(-580 -1182)"><g><use fill="#6f9cd6" xlink:href="#2a2ia"/></g><g><use fill="#6f9cd6" xlink:href="#2a2ib"/></g><g><use fill="#6f9cd6" xlink:href="#2a2ic"/></g><g><use fill="#6f9cd6" xlink:href="#2a2id"/></g><g><use fill="#6f9cd6" xlink:href="#2a2ie"/></g></g></g></svg>