<svg width="28" height="28" viewBox="0 0 28 28" fill="none" xmlns="http://www.w3.org/2000/svg">
<path d="M0.5 14C0.5 6.54416 6.54416 0.5 14 0.5C21.4558 0.5 27.5 6.54416 27.5 14C27.5 21.4558 21.4558 27.5 14 27.5C6.54416 27.5 0.5 21.4558 0.5 14Z" fill="#6F9CD6" stroke="#6F9CD6"/>
<path fill-rule="evenodd" clip-rule="evenodd" d="M12.9 17.0504C10.1786 17.0504 8 14.8596 8 12.1251C8 9.39075 10.1786 7.19995 12.9 7.19995C15.6215 7.19995 17.8 9.39075 17.8 12.1251C17.8 13.1659 17.4844 14.1278 16.9435 14.9202L20.5337 18.5305C20.8888 18.8876 20.8888 19.4414 20.5337 19.7985C20.3561 19.9771 20.1542 20.0673 19.9 20.0673C19.6458 20.0673 19.444 19.9771 19.2664 19.7985L15.6788 16.1909C14.891 16.7338 13.9347 17.0504 12.9 17.0504ZM9.80005 12.1252C9.80005 10.3848 11.1715 9.00562 12.9 9.00562C14.6287 9.00562 16 10.3848 16 12.1252C16 13.8657 14.6287 15.2449 12.9 15.2449C11.1715 15.2449 9.80005 13.8657 9.80005 12.1252Z" fill="white"/>
</svg>
