<svg xmlns="http://www.w3.org/2000/svg" xmlns:xlink="http://www.w3.org/1999/xlink" width="78" height="78"><defs><path id="a" d="M255 1221a38.75 38.75 0 0 1-11.42 27.58A38.74 38.74 0 0 1 216 1260a38.74 38.74 0 0 1-27.58-11.42A38.74 38.74 0 0 1 177 1221a38.74 38.74 0 0 1 11.42-27.58A38.74 38.74 0 0 1 216 1182c9.88 0 19.2 3.65 26.42 10.32l.03.03a40.5 40.5 0 0 1 .66.61v.01l.47.45.45.46v.01l.02.02.02.01a38.3 38.3 0 0 1 .47.5A38.72 38.72 0 0 1 255 1221zm-23.99-33.3l-6.2 6.2a.42.42 0 0 0 0 .6l15.29 15.29a.42.42 0 0 0 .6 0l6.97-6.99a36.78 36.78 0 0 0-16.66-15.1zm1.9 25.46l3.54-3.54-11.48-11.48-2.66 2.66 4.65 4.65a1.23 1.23 0 1 1-1.74 1.74l-5.42-5.41a4.97 4.97 0 0 0-7.27 0l-1.75 1.77a1.23 1.23 0 0 1-1.75-1.73l1-1.01-2.67-2.67-3.45 3.45-8.03 8.03 2.67 2.68 2.64-2.59a1.23 1.23 0 0 1 1.72 1.76l-3.5 3.44-.07.05-.02.03-.11.07a3.82 3.82 0 0 0-1.7 3.15c-.04 1.04.23 2.1.75 3.02v-.27a4.42 4.42 0 0 1 4.2-4.43c.71-.03 1.4.12 2.03.42v-5.34a4.42 4.42 0 0 1 4.2-4.43c.75-.02 1.46.14 2.1.46a4.31 4.31 0 0 1 4.43-3.57 4.41 4.41 0 0 1 4.12 3.58 4.32 4.32 0 0 1 2.11-.47 4.41 4.41 0 0 1 4.12 3.58 4.33 4.33 0 0 1 2.12-.46 4.42 4.42 0 0 1 4.2 4.42v8.28l1.02-1.03a5 5 0 0 0 0-7.07 1.23 1.23 0 0 1 0-1.74zm-29.2-26.56l5.56 5.56a2.88 2.88 0 0 1 0 4.07l-.17.17 2.73 2.73a7.38 7.38 0 0 1 3.43-1.32l.05-.01a7.13 7.13 0 0 1 .35-.03l.18-.01h.38a7.59 7.59 0 0 1 .8.04h.05c1.24.15 2.41.6 3.43 1.33l2.73-2.73-.17-.17a2.88 2.88 0 0 1 0-4.07l5.48-5.48a36.37 36.37 0 0 0-24.84-.08zm-19.26 16l7.19 7.19c.16.16.43.16.59 0l1.04-1.04 6.6-6.61 7.65-7.65a.42.42 0 0 0 0-.59l-6.3-6.3a36.77 36.77 0 0 0-16.77 15zm19.8 40.41h.24v-3.87a7.48 7.48 0 0 1-6.23-7.36v-6.85a8.43 8.43 0 0 1-3.22-6.8 6.3 6.3 0 0 1 1.68-4.18l-2.58-2.59-.17.17a2.86 2.86 0 0 1-4.07 0l-6.67-6.67a36.31 36.31 0 0 0-3.77 16.14 36.59 36.59 0 0 0 21.92 33.48v-8.59c0-1.58 1.29-2.88 2.88-2.88zm22.06 13.04v-10.16a.42.42 0 0 0-.42-.41h-5.72a1.23 1.23 0 0 1 0-2.47h3.02v-5c0-.67.54-1.23 1.21-1.23a5 5 0 0 0 5.02-5v-17.06c0-1.05-.81-1.93-1.82-1.96a1.88 1.88 0 0 0-1.95 1.93v9.3c0 .7-.57 1.25-1.27 1.23-.67-.02-1.19-.6-1.19-1.28v-12.33c0-1.05-.82-1.93-1.82-1.97a1.86 1.86 0 0 0-1.4.57c-.37.36-.55.86-.55 1.37V1224c0 .7-.57 1.25-1.27 1.23-.67-.02-1.2-.6-1.2-1.28v-15.45c0-1.05-.8-1.93-1.81-1.96a1.88 1.88 0 0 0-1.95 1.93V1224c0 .7-.57 1.25-1.27 1.23-.67-.02-1.2-.6-1.2-1.28v-12.36a1.87 1.87 0 0 0-1.95-1.94c-1 .04-1.81.92-1.81 1.97V1224c0 .7-.58 1.25-1.27 1.23-.68-.02-1.2-.6-1.2-1.28v-3.01a1.88 1.88 0 0 0-1.95-1.93c-1 .02-1.82.9-1.82 1.96v10.82a5 5 0 0 0 5.02 5c.68 0 1.22.56 1.22 1.24v5h7.2a1.23 1.23 0 0 1 0 2.46h-9.9a.42.42 0 0 0-.42.41v9.56c1.54.55 3.12 1 4.75 1.33l.27.05a36.46 36.46 0 0 0 13.96.07l.37-.08.62-.13.42-.09.32-.08c.46-.1.9-.22 1.35-.35.04 0 .08-.02.11-.03l.3-.09zm26.23-35.05c0-5.7-1.32-11.1-3.66-15.92l-6.45 6.45a2.86 2.86 0 0 1-4.07 0l-.17-.17-2.73 2.74a7.48 7.48 0 0 1-.8 9.61l-2.76 2.76-.01.01v5.3c0 3.7-2.7 6.77-6.24 7.36v3.87h.24c1.59 0 2.88 1.3 2.88 2.88v9.34a36.6 36.6 0 0 0 23.77-34.23z"/></defs><use fill="#6f9cd6" xlink:href="#a" transform="translate(-177 -1182)"/></svg>