<svg xmlns="http://www.w3.org/2000/svg" xmlns:xlink="http://www.w3.org/1999/xlink" width="85" height="85" viewBox="0 0 85 85"><defs><path id="4twaa" d="M1064.17 1234.42v-8.5c0-.79.63-1.42 1.42-1.42h5.66c.79 0 1.42.63 1.42 1.42v8.5c0 .78-.63 1.41-1.42 1.41h-5.66c-.79 0-1.42-.63-1.42-1.41zm2.83-1.42h2.84v-5.67H1067z"/><path id="4twab" d="M1064.17 1217.42v-8.5c0-.79.63-1.42 1.42-1.42h5.66c.79 0 1.42.63 1.42 1.42v8.5c0 .78-.63 1.41-1.42 1.41h-5.66c-.79 0-1.42-.63-1.42-1.41zm2.83-1.42h2.84v-5.67H1067z"/><path id="4twac" d="M1054.98 1208.71l20.52-12.3 20.52 12.3a1.4 1.4 0 0 0 1.94-.48c.4-.67.19-1.54-.48-1.94l-20.57-12.34v-9.12h7.09v2.84h-4.25a1.42 1.42 0 0 0 0 2.83h5.66c.79 0 1.42-.63 1.42-1.42v-5.66c0-.79-.63-1.42-1.42-1.42h-9.91c-.79 0-1.42.63-1.42 1.42v10.53l-20.56 12.34a1.42 1.42 0 1 0 1.46 2.42z"/><path id="4twad" d="M1048.58 1235.83c.79 0 1.42-.63 1.42-1.41v-8.5c0-.79-.63-1.42-1.42-1.42h-5.66c-.79 0-1.42.63-1.42 1.42v2.83a1.42 1.42 0 0 0 2.83 0v-1.42h2.84v7.09c0 .78.63 1.41 1.41 1.41z"/><path id="4twae" d="M1058.5 1254.25v-41.08a1.42 1.42 0 0 0-2.83 0v41.08a1.42 1.42 0 0 0 2.83 0z"/><path id="4twaf" d="M1050 1259.92c0-.79.63-1.42 1.42-1.42h12.75v-14.17h-1.42a1.42 1.42 0 0 1 0-2.83h25.5a1.42 1.42 0 0 1 0 2.83h-1.42v14.17h12.75a1.42 1.42 0 0 1 0 2.83h-48.16c-.79 0-1.42-.63-1.42-1.41zm26.92-1.42h7.08v-14.17h-7.08v5.67a1.42 1.42 0 0 1 0 2.83zm-9.92 0h7.08v-5.67a1.42 1.42 0 0 1 0-2.83v-5.67H1067z"/><path id="4twag" d="M1109.5 1244.34v8.5c0 .78-.63 1.41-1.42 1.41h-5.66c-.79 0-1.42-.63-1.42-1.41v-8.5c0-.79.63-1.42 1.42-1.42h5.66c.79 0 1.42.63 1.42 1.42zm-2.83 1.41h-2.84v5.67h2.84z"/><path id="4twah" d="M1109.5 1227.34v8.5c0 .78-.63 1.41-1.42 1.41h-5.66c-.79 0-1.42-.63-1.42-1.41v-8.5c0-.79.63-1.42 1.42-1.42h5.66c.79 0 1.42.63 1.42 1.42zm-2.83 1.41h-2.84v5.67h2.84z"/><path id="4twai" d="M1105.25 1264.17h-59.5a1.42 1.42 0 0 0 0 2.83h59.5a1.42 1.42 0 0 0 0-2.83z"/><path id="4twaj" d="M1116.59 1213.17c-.79 0-1.42.63-1.42 1.42v1.41h-15.58a1.42 1.42 0 0 0 0 2.84h15.58v46.75a1.42 1.42 0 0 0 2.83 0v-51c0-.79-.63-1.42-1.41-1.42z"/><path id="4twak" d="M1078.33 1225.92c0-.79.63-1.42 1.42-1.42h5.66c.79 0 1.42.63 1.42 1.42v8.5c0 .78-.63 1.41-1.42 1.41h-5.66c-.79 0-1.42-.63-1.42-1.41zm2.83 7.08h2.84v-5.67h-2.84z"/><path id="4twal" d="M1041.5 1258.36v7.22a1.42 1.42 0 0 1-2.83 0v-7.22a7.1 7.1 0 0 1-5.67-6.94c0-.19.08-18.42 7.08-18.42s7.09 18.23 7.09 18.42a7.1 7.1 0 0 1-5.67 6.94zm2.83-6.94c0-7.06-1.9-15.59-4.25-15.59s-4.25 8.53-4.25 15.59a4.26 4.26 0 0 0 8.5 0z"/><path id="4twam" d="M1095.33 1254.25v-42.5a1.42 1.42 0 0 0-2.83 0v42.5a1.42 1.42 0 0 0 2.83 0z"/><path id="4twan" d="M1078.33 1217.42v-8.5c0-.79.63-1.42 1.42-1.42h5.66c.79 0 1.42.63 1.42 1.42v8.5c0 .78-.63 1.41-1.42 1.41h-5.66c-.79 0-1.42-.63-1.42-1.41zm2.83-1.42h2.84v-5.67h-2.84z"/><path id="4twao" d="M1034.42 1231.59c.78 0 1.41-.64 1.41-1.42v-11.33h15.59a1.42 1.42 0 0 0 0-2.84h-15.59v-1.41a1.42 1.42 0 0 0-2.83 0v15.58c0 .78.63 1.42 1.42 1.42z"/></defs><g><g transform="translate(-1033 -1182)"><use fill="#6f9cd6" xlink:href="#4twaa"/></g><g transform="translate(-1033 -1182)"><use fill="#6f9cd6" xlink:href="#4twab"/></g><g transform="translate(-1033 -1182)"><use fill="#6f9cd6" xlink:href="#4twac"/></g><g transform="translate(-1033 -1182)"><use fill="#6f9cd6" xlink:href="#4twad"/></g><g transform="translate(-1033 -1182)"><use fill="#6f9cd6" xlink:href="#4twae"/></g><g transform="translate(-1033 -1182)"><use fill="#6f9cd6" xlink:href="#4twaf"/></g><g transform="translate(-1033 -1182)"><use fill="#6f9cd6" xlink:href="#4twag"/></g><g transform="translate(-1033 -1182)"><use fill="#6f9cd6" xlink:href="#4twah"/></g><g transform="translate(-1033 -1182)"><use fill="#6f9cd6" xlink:href="#4twai"/></g><g transform="translate(-1033 -1182)"><use fill="#6f9cd6" xlink:href="#4twaj"/></g><g transform="translate(-1033 -1182)"><use fill="#6f9cd6" xlink:href="#4twak"/></g><g transform="translate(-1033 -1182)"><use fill="#6f9cd6" xlink:href="#4twal"/></g><g transform="translate(-1033 -1182)"><use fill="#6f9cd6" xlink:href="#4twam"/></g><g transform="translate(-1033 -1182)"><use fill="#6f9cd6" xlink:href="#4twan"/></g><g transform="translate(-1033 -1182)"><use fill="#6f9cd6" xlink:href="#4twao"/></g></g></svg>