<svg width="1279" height="430" viewBox="0 0 1279 430" fill="none" xmlns="http://www.w3.org/2000/svg">
<path fill-rule="evenodd" clip-rule="evenodd" d="M-1 4C-1 1.79086 0.790861 0 3 0H1275C1277.21 0 1279 1.79086 1279 4V426C1279 428.209 1277.21 430 1275 430H3C0.790861 430 -1 428.209 -1 426V4Z" fill="#6F9CD6"/>
<mask id="mask0" mask-type="alpha" maskUnits="userSpaceOnUse" x="-1" y="0" width="1280" height="430">
<path fill-rule="evenodd" clip-rule="evenodd" d="M-1 4C-1 1.79086 0.790861 0 3 0H1275C1277.21 0 1279 1.79086 1279 4V426C1279 428.209 1277.21 430 1275 430H3C0.790861 430 -1 428.209 -1 426V4Z" fill="white"/>
</mask>
<g mask="url(#mask0)">
<g opacity="0.215297">
<path fill-rule="evenodd" clip-rule="evenodd" d="M935.158 457.348L1099.43 371.262L935.158 457.348Z" fill="white"/>
<path fill-rule="evenodd" clip-rule="evenodd" d="M1099.3 371.009L1099.56 371.514L935.287 457.598L935.024 457.097L1099.3 371.009Z" fill="white"/>
<path fill-rule="evenodd" clip-rule="evenodd" d="M935.158 457.348L1099.43 371.262L935.158 457.348Z" fill="white"/>
<path fill-rule="evenodd" clip-rule="evenodd" d="M1099.3 371.009L1099.56 371.514L935.287 457.598L935.024 457.097L1099.3 371.009Z" fill="white"/>
<path fill-rule="evenodd" clip-rule="evenodd" d="M824.127 312.361L935.158 457.347L824.127 312.361Z" fill="white"/>
<path fill-rule="evenodd" clip-rule="evenodd" d="M824.351 312.188L935.382 457.174L934.93 457.521L823.903 312.532L824.351 312.188Z" fill="white"/>
<path fill-rule="evenodd" clip-rule="evenodd" d="M824.127 312.361L935.158 457.347L824.127 312.361Z" fill="white"/>
<path fill-rule="evenodd" clip-rule="evenodd" d="M824.351 312.188L935.382 457.174L934.93 457.521L823.903 312.532L824.351 312.188Z" fill="white"/>
<path fill-rule="evenodd" clip-rule="evenodd" d="M983.872 251.193L824.128 312.362L983.872 251.193Z" fill="white"/>
<path fill-rule="evenodd" clip-rule="evenodd" d="M983.771 250.929L983.974 251.458L824.231 312.626L824.024 312.095L983.771 250.929Z" fill="white"/>
<path fill-rule="evenodd" clip-rule="evenodd" d="M983.872 251.193L935.158 457.348L983.872 251.193Z" fill="white"/>
<path fill-rule="evenodd" clip-rule="evenodd" d="M983.599 251.129L984.15 251.259L935.43 457.414L934.883 457.284L983.599 251.129Z" fill="white"/>
<path fill-rule="evenodd" clip-rule="evenodd" d="M983.872 251.193L935.158 457.348L983.872 251.193Z" fill="white"/>
<path fill-rule="evenodd" clip-rule="evenodd" d="M983.599 251.129L984.15 251.259L935.43 457.414L934.883 457.284L983.599 251.129Z" fill="white"/>
<path fill-rule="evenodd" clip-rule="evenodd" d="M983.872 251.193L1099.43 371.262L983.872 251.193Z" fill="white"/>
<path fill-rule="evenodd" clip-rule="evenodd" d="M984.077 250.997L1099.64 371.064L1099.23 371.457L983.669 251.392L984.077 250.997Z" fill="white"/>
<path fill-rule="evenodd" clip-rule="evenodd" d="M663.251 339.546L824.128 312.361L663.251 339.546Z" fill="white"/>
<path fill-rule="evenodd" clip-rule="evenodd" d="M824.08 312.083L824.175 312.638L663.296 339.823L663.199 339.268L824.08 312.083Z" fill="white"/>
<path fill-rule="evenodd" clip-rule="evenodd" d="M535.226 431.295L663.25 339.545L535.226 431.295Z" fill="white"/>
<path fill-rule="evenodd" clip-rule="evenodd" d="M663.083 339.316L663.414 339.777L535.389 431.524L535.06 431.066L663.083 339.316Z" fill="white"/>
<path fill-rule="evenodd" clip-rule="evenodd" d="M560.148 482.267L663.25 339.546L560.148 482.267Z" fill="white"/>
<path fill-rule="evenodd" clip-rule="evenodd" d="M663.018 339.38L663.479 339.711L560.382 482.432L559.921 482.101L663.018 339.38Z" fill="white"/>
<path fill-rule="evenodd" clip-rule="evenodd" d="M787.872 187.763L663.252 339.545L787.872 187.763Z" fill="white"/>
<path fill-rule="evenodd" clip-rule="evenodd" d="M787.652 187.584L788.091 187.939L663.466 339.726L663.03 339.364L787.652 187.584Z" fill="white"/>
<path fill-rule="evenodd" clip-rule="evenodd" d="M787.872 187.763L983.873 251.194L787.872 187.763Z" fill="white"/>
<path fill-rule="evenodd" clip-rule="evenodd" d="M787.958 187.493L983.961 250.925L983.785 251.465L787.786 188.032L787.958 187.493Z" fill="white"/>
<path fill-rule="evenodd" clip-rule="evenodd" d="M787.872 187.763L824.128 312.36L787.872 187.763Z" fill="white"/>
<path fill-rule="evenodd" clip-rule="evenodd" d="M788.144 187.681L824.399 312.28L823.855 312.441L787.601 187.842L788.144 187.681Z" fill="white"/>
<path fill-rule="evenodd" clip-rule="evenodd" d="M716.496 14.4568L548.82 142.453L716.496 14.4568Z" fill="white"/>
<path fill-rule="evenodd" clip-rule="evenodd" d="M716.323 14.2307L716.668 14.6807L548.992 142.677L548.648 142.229L716.323 14.2307Z" fill="white"/>
<path fill-rule="evenodd" clip-rule="evenodd" d="M716.496 14.4568L787.873 187.762L716.496 14.4568Z" fill="white"/>
<path fill-rule="evenodd" clip-rule="evenodd" d="M716.759 14.3491L788.134 187.654L787.609 187.868L716.234 14.5653L716.759 14.3491Z" fill="white"/>
<path fill-rule="evenodd" clip-rule="evenodd" d="M716.496 14.4568L548.82 142.453L716.496 14.4568Z" fill="white"/>
<path fill-rule="evenodd" clip-rule="evenodd" d="M716.323 14.2307L716.668 14.6807L548.992 142.677L548.648 142.229L716.323 14.2307Z" fill="white"/>
<path fill-rule="evenodd" clip-rule="evenodd" d="M716.496 14.4568L787.873 187.762L716.496 14.4568Z" fill="white"/>
<path fill-rule="evenodd" clip-rule="evenodd" d="M716.759 14.3491L788.134 187.654L787.609 187.868L716.234 14.5653L716.759 14.3491Z" fill="white"/>
<path fill-rule="evenodd" clip-rule="evenodd" d="M377.745 94.8804L548.82 142.453L377.745 94.8804Z" fill="white"/>
<path fill-rule="evenodd" clip-rule="evenodd" d="M377.823 94.6069L548.898 142.179L548.744 142.726L377.668 95.1517L377.823 94.6069Z" fill="white"/>
<path fill-rule="evenodd" clip-rule="evenodd" d="M459.316 268.184L377.744 94.8811L459.316 268.184Z" fill="white"/>
<path fill-rule="evenodd" clip-rule="evenodd" d="M378.004 94.7578L459.576 268.063L459.062 268.306L377.492 95.0004L378.004 94.7578Z" fill="white"/>
<path fill-rule="evenodd" clip-rule="evenodd" d="M459.316 268.184L548.82 142.453L459.316 268.184Z" fill="white"/>
<path fill-rule="evenodd" clip-rule="evenodd" d="M548.588 142.29L549.053 142.616L459.55 268.347L459.089 268.021L548.588 142.29Z" fill="white"/>
<path fill-rule="evenodd" clip-rule="evenodd" d="M459.316 268.184L535.225 431.295L459.316 268.184Z" fill="white"/>
<path fill-rule="evenodd" clip-rule="evenodd" d="M459.575 268.063L535.482 431.174L534.97 431.415L459.063 268.304L459.575 268.063Z" fill="white"/>
<path fill-rule="evenodd" clip-rule="evenodd" d="M459.316 268.184L663.25 339.547L459.316 268.184Z" fill="white"/>
<path fill-rule="evenodd" clip-rule="evenodd" d="M459.411 267.917L663.343 339.28L663.157 339.814L459.226 268.453L459.411 267.917Z" fill="white"/>
<path fill-rule="evenodd" clip-rule="evenodd" d="M711.965 191.16L716.496 14.4575L711.965 191.16Z" fill="white"/>
<path fill-rule="evenodd" clip-rule="evenodd" d="M716.214 14.4504L716.781 14.4637L712.247 191.168L711.682 191.15L716.214 14.4504Z" fill="white"/>
<path fill-rule="evenodd" clip-rule="evenodd" d="M711.965 191.16L716.496 14.4575L711.965 191.16Z" fill="white"/>
<path fill-rule="evenodd" clip-rule="evenodd" d="M716.214 14.4504L716.781 14.4637L712.247 191.168L711.682 191.15L716.214 14.4504Z" fill="white"/>
<path fill-rule="evenodd" clip-rule="evenodd" d="M711.965 191.159L548.821 142.453L711.965 191.159Z" fill="white"/>
<path fill-rule="evenodd" clip-rule="evenodd" d="M548.902 142.182L712.044 190.888L711.885 191.431L548.739 142.725L548.902 142.182Z" fill="white"/>
<path fill-rule="evenodd" clip-rule="evenodd" d="M711.965 191.16L787.872 187.763L711.965 191.16Z" fill="white"/>
<path fill-rule="evenodd" clip-rule="evenodd" d="M787.859 187.479L787.886 188.045L711.979 191.442L711.955 190.877L787.859 187.479Z" fill="white"/>
<path fill-rule="evenodd" clip-rule="evenodd" d="M711.965 191.16L663.251 339.545L711.965 191.16Z" fill="white"/>
<path fill-rule="evenodd" clip-rule="evenodd" d="M711.696 191.071L712.234 191.248L663.518 339.633L662.98 339.455L711.696 191.071Z" fill="white"/>
<path fill-rule="evenodd" clip-rule="evenodd" d="M711.965 191.16L824.128 312.36L711.965 191.16Z" fill="white"/>
<path fill-rule="evenodd" clip-rule="evenodd" d="M712.174 190.968L824.337 312.166L823.92 312.552L711.755 191.352L712.174 190.968Z" fill="white"/>
<path fill-rule="evenodd" clip-rule="evenodd" d="M164.751 490.196L182.881 350.874L164.751 490.196Z" fill="white"/>
<path fill-rule="evenodd" clip-rule="evenodd" d="M182.598 350.837L183.161 350.908L165.033 490.232L164.468 490.159L182.598 350.837Z" fill="white"/>
<path fill-rule="evenodd" clip-rule="evenodd" d="M359.618 418.834L284.845 342.946L359.618 418.834Z" fill="white"/>
<path fill-rule="evenodd" clip-rule="evenodd" d="M285.044 342.745L359.821 418.636L359.42 419.035L284.642 343.144L285.044 342.745Z" fill="white"/>
<path fill-rule="evenodd" clip-rule="evenodd" d="M359.618 418.834L182.881 350.875L359.618 418.834Z" fill="white"/>
<path fill-rule="evenodd" clip-rule="evenodd" d="M182.98 350.609L359.72 418.571L359.517 419.102L182.777 351.136L182.98 350.609Z" fill="white"/>
<path fill-rule="evenodd" clip-rule="evenodd" d="M359.618 418.834L459.315 268.184L359.618 418.834Z" fill="white"/>
<path fill-rule="evenodd" clip-rule="evenodd" d="M459.079 268.029L459.556 268.342L359.854 418.991L359.381 418.68L459.079 268.029Z" fill="white"/>
<path fill-rule="evenodd" clip-rule="evenodd" d="M359.618 418.834L560.147 482.268L359.618 418.834Z" fill="white"/>
<path fill-rule="evenodd" clip-rule="evenodd" d="M359.704 418.565L560.236 481.998L560.066 482.537L359.536 419.105L359.704 418.565Z" fill="white"/>
<path fill-rule="evenodd" clip-rule="evenodd" d="M359.618 418.834L535.227 431.294L359.618 418.834Z" fill="white"/>
<path fill-rule="evenodd" clip-rule="evenodd" d="M359.639 418.552L535.248 431.012L535.204 431.577L359.599 419.119L359.639 418.552Z" fill="white"/>
<path fill-rule="evenodd" clip-rule="evenodd" d="M146.626 128.862L182.881 350.873L146.626 128.862Z" fill="white"/>
<path fill-rule="evenodd" clip-rule="evenodd" d="M146.906 128.817L183.161 350.826L182.599 350.918L146.345 128.907L146.906 128.817Z" fill="white"/>
<path fill-rule="evenodd" clip-rule="evenodd" d="M10.672 276.113L146.626 128.861L10.672 276.113Z" fill="white"/>
<path fill-rule="evenodd" clip-rule="evenodd" d="M146.414 128.668L146.831 129.054L10.8778 276.308L10.4653 275.922L146.414 128.668Z" fill="white"/>
<path fill-rule="evenodd" clip-rule="evenodd" d="M10.672 276.113L-51.6405 315.76L10.672 276.113Z" fill="white"/>
<path fill-rule="evenodd" clip-rule="evenodd" d="M10.5169 275.874L10.8236 276.353L-51.4912 315.998L-51.7934 315.521L10.5169 275.874Z" fill="white"/>
<path fill-rule="evenodd" clip-rule="evenodd" d="M10.672 276.113L182.881 350.875L10.672 276.113Z" fill="white"/>
<path fill-rule="evenodd" clip-rule="evenodd" d="M10.7841 275.852L182.993 350.614L182.766 351.133L10.5546 276.373L10.7841 275.852Z" fill="white"/>
<path fill-rule="evenodd" clip-rule="evenodd" d="M1058.65 69.9609L983.871 251.193L1058.65 69.9609Z" fill="white"/>
<path fill-rule="evenodd" clip-rule="evenodd" d="M1058.39 69.8511L1058.91 70.0694L984.138 251.304L983.61 251.086L1058.39 69.8511Z" fill="white"/>
<path fill-rule="evenodd" clip-rule="evenodd" d="M875.11 30.3146L1058.65 69.9618L875.11 30.3146Z" fill="white"/>
<path fill-rule="evenodd" clip-rule="evenodd" d="M875.17 30.0389L1058.71 69.684L1058.59 70.2376L875.049 30.5904L875.17 30.0389Z" fill="white"/>
<path fill-rule="evenodd" clip-rule="evenodd" d="M875.11 30.3146L716.495 14.4579L875.11 30.3146Z" fill="white"/>
<path fill-rule="evenodd" clip-rule="evenodd" d="M716.526 14.1747L875.137 30.0314L875.084 30.596L716.471 14.7393L716.526 14.1747Z" fill="white"/>
<path fill-rule="evenodd" clip-rule="evenodd" d="M875.11 30.3146L716.495 14.4579L875.11 30.3146Z" fill="white"/>
<path fill-rule="evenodd" clip-rule="evenodd" d="M716.526 14.1747L875.137 30.0314L875.084 30.596L716.471 14.7393L716.526 14.1747Z" fill="white"/>
<path fill-rule="evenodd" clip-rule="evenodd" d="M875.11 30.3146L787.872 187.763L875.11 30.3146Z" fill="white"/>
<path fill-rule="evenodd" clip-rule="evenodd" d="M874.864 30.1768L875.356 30.4525L788.123 187.899L787.627 187.625L874.864 30.1768Z" fill="white"/>
<path fill-rule="evenodd" clip-rule="evenodd" d="M1310.16 303.299L1099.44 371.26L1310.16 303.299Z" fill="white"/>
<path fill-rule="evenodd" clip-rule="evenodd" d="M1310.07 303.029L1310.25 303.567L1099.52 371.531L1099.35 370.989L1310.07 303.029Z" fill="white"/>
<path fill-rule="evenodd" clip-rule="evenodd" d="M1109.63 169.637L1058.65 69.9619L1109.63 169.637Z" fill="white"/>
<path fill-rule="evenodd" clip-rule="evenodd" d="M1058.9 69.8317L1109.88 169.507L1109.38 169.767L1058.4 70.0897L1058.9 69.8317Z" fill="white"/>
<path fill-rule="evenodd" clip-rule="evenodd" d="M1109.63 169.637L983.872 251.194L1109.63 169.637Z" fill="white"/>
<path fill-rule="evenodd" clip-rule="evenodd" d="M1109.48 169.4L1109.78 169.876L984.026 251.432L983.719 250.958L1109.48 169.4Z" fill="white"/>
<path fill-rule="evenodd" clip-rule="evenodd" d="M1109.63 169.637L1099.43 371.261L1109.63 169.637Z" fill="white"/>
<path fill-rule="evenodd" clip-rule="evenodd" d="M1109.35 169.624L1109.91 169.653L1099.72 371.277L1099.15 371.246L1109.35 169.624Z" fill="white"/>
<path fill-rule="evenodd" clip-rule="evenodd" d="M1169.68 -65.9646L1294.3 37.1094L1169.68 -65.9646Z" fill="white"/>
<path fill-rule="evenodd" clip-rule="evenodd" d="M1169.86 -66.1842L1294.48 36.892L1294.12 37.3309L1169.5 -65.7497L1169.86 -66.1842Z" fill="white"/>
<path fill-rule="evenodd" clip-rule="evenodd" d="M1169.68 -65.9646L1058.65 69.9609L1169.68 -65.9646Z" fill="white"/>
<path fill-rule="evenodd" clip-rule="evenodd" d="M1169.46 -66.1454L1169.89 -65.7859L1058.87 70.1396L1058.43 69.7801L1169.46 -66.1454Z" fill="white"/>
<path fill-rule="evenodd" clip-rule="evenodd" d="M855.849 -98.8152L875.109 30.3146L855.849 -98.8152Z" fill="white"/>
<path fill-rule="evenodd" clip-rule="evenodd" d="M856.129 -98.856L875.389 30.2738L874.831 30.3577L855.569 -98.7721L856.129 -98.856Z" fill="white"/>
<path fill-rule="evenodd" clip-rule="evenodd" d="M855.849 -98.8152L858.115 46.1713L855.849 -98.8152Z" fill="white"/>
<path fill-rule="evenodd" clip-rule="evenodd" d="M856.134 -98.8193L858.399 46.1671L857.832 46.176L855.567 -98.8105L856.134 -98.8193Z" fill="white"/>
<path fill-rule="evenodd" clip-rule="evenodd" d="M855.849 -98.8152L716.496 14.4557L855.849 -98.8152Z" fill="white"/>
<path fill-rule="evenodd" clip-rule="evenodd" d="M855.672 -99.0349L856.025 -98.596L716.677 14.6771L716.319 14.236L855.672 -99.0349Z" fill="white"/>
<path fill-rule="evenodd" clip-rule="evenodd" d="M855.849 -98.8152L716.496 14.4557L855.849 -98.8152Z" fill="white"/>
<path fill-rule="evenodd" clip-rule="evenodd" d="M855.672 -99.0349L856.025 -98.596L716.677 14.6771L716.319 14.236L855.672 -99.0349Z" fill="white"/>
<path fill-rule="evenodd" clip-rule="evenodd" d="M489.907 -26.3204L377.745 94.8799L489.907 -26.3204Z" fill="white"/>
<path fill-rule="evenodd" clip-rule="evenodd" d="M489.7 -26.5121L490.115 -26.1283L377.953 95.072L377.538 94.6861L489.7 -26.5121Z" fill="white"/>
<path fill-rule="evenodd" clip-rule="evenodd" d="M489.907 -26.3204L548.82 142.454L489.907 -26.3204Z" fill="white"/>
<path fill-rule="evenodd" clip-rule="evenodd" d="M490.176 -26.4131L549.087 142.362L548.553 142.547L489.643 -26.2278L490.176 -26.4131Z" fill="white"/>
<path fill-rule="evenodd" clip-rule="evenodd" d="M543.156 201.354L711.964 191.16L543.156 201.354Z" fill="white"/>
<path fill-rule="evenodd" clip-rule="evenodd" d="M711.95 190.877L711.985 191.442L543.171 201.639L543.14 201.07L711.95 190.877Z" fill="white"/>
<path fill-rule="evenodd" clip-rule="evenodd" d="M543.156 201.354L459.316 268.185L543.156 201.354Z" fill="white"/>
<path fill-rule="evenodd" clip-rule="evenodd" d="M542.98 201.135L543.335 201.574L459.493 268.406L459.142 267.963L542.98 201.135Z" fill="white"/>
<path fill-rule="evenodd" clip-rule="evenodd" d="M543.156 201.354L377.744 94.8815L543.156 201.354Z" fill="white"/>
<path fill-rule="evenodd" clip-rule="evenodd" d="M377.9 94.6414L543.31 201.114L543.003 201.593L377.589 95.1178L377.9 94.6414Z" fill="white"/>
<path fill-rule="evenodd" clip-rule="evenodd" d="M543.156 201.354L548.819 142.454L543.156 201.354Z" fill="white"/>
<path fill-rule="evenodd" clip-rule="evenodd" d="M548.54 142.426L549.105 142.478L543.437 201.381L542.875 201.328L548.54 142.426Z" fill="white"/>
<path fill-rule="evenodd" clip-rule="evenodd" d="M543.156 201.354L663.25 339.545L543.156 201.354Z" fill="white"/>
<path fill-rule="evenodd" clip-rule="evenodd" d="M543.369 201.169L663.463 339.358L663.035 339.73L542.944 201.542L543.369 201.169Z" fill="white"/>
<path fill-rule="evenodd" clip-rule="evenodd" d="M730.09 398.447L711.965 191.158L730.09 398.447Z" fill="white"/>
<path fill-rule="evenodd" clip-rule="evenodd" d="M712.247 191.136L730.375 398.42L729.81 398.471L711.683 191.182L712.247 191.136Z" fill="white"/>
<path fill-rule="evenodd" clip-rule="evenodd" d="M730.09 398.447L787.872 187.764L730.09 398.447Z" fill="white"/>
<path fill-rule="evenodd" clip-rule="evenodd" d="M787.601 187.687L788.148 187.835L730.367 398.522L729.82 398.372L787.601 187.687Z" fill="white"/>
<path fill-rule="evenodd" clip-rule="evenodd" d="M730.09 398.447L560.149 482.267L730.09 398.447Z" fill="white"/>
<path fill-rule="evenodd" clip-rule="evenodd" d="M729.968 398.193L730.219 398.7L560.278 482.52L560.024 482.013L729.968 398.193Z" fill="white"/>
<path fill-rule="evenodd" clip-rule="evenodd" d="M730.09 398.447L535.226 431.296L730.09 398.447Z" fill="white"/>
<path fill-rule="evenodd" clip-rule="evenodd" d="M730.045 398.169L730.142 398.727L535.273 431.576L535.178 431.018L730.045 398.169Z" fill="white"/>
<path fill-rule="evenodd" clip-rule="evenodd" d="M730.09 398.447L663.251 339.546L730.09 398.447Z" fill="white"/>
<path fill-rule="evenodd" clip-rule="evenodd" d="M663.436 339.333L730.28 398.233L729.905 398.659L663.061 339.758L663.436 339.333Z" fill="white"/>
<path fill-rule="evenodd" clip-rule="evenodd" d="M730.09 398.447L824.127 312.361L730.09 398.447Z" fill="white"/>
<path fill-rule="evenodd" clip-rule="evenodd" d="M823.933 312.151L824.317 312.568L730.285 398.656L729.901 398.237L823.933 312.151Z" fill="white"/>
<path fill-rule="evenodd" clip-rule="evenodd" d="M730.09 398.447L935.158 457.347L730.09 398.447Z" fill="white"/>
<path fill-rule="evenodd" clip-rule="evenodd" d="M730.172 398.176L935.236 457.076L935.077 457.619L730.013 398.718L730.172 398.176Z" fill="white"/>
<path fill-rule="evenodd" clip-rule="evenodd" d="M730.09 398.447L935.158 457.347L730.09 398.447Z" fill="white"/>
<path fill-rule="evenodd" clip-rule="evenodd" d="M730.172 398.176L935.236 457.076L935.077 457.619L730.013 398.718L730.172 398.176Z" fill="white"/>
<path fill-rule="evenodd" clip-rule="evenodd" d="M895.504 250.06L867.177 262.52L895.504 250.06Z" fill="white"/>
<path fill-rule="evenodd" clip-rule="evenodd" d="M895.387 249.802L895.619 250.318L867.294 262.78L867.065 262.264L895.387 249.802Z" fill="white"/>
<path fill-rule="evenodd" clip-rule="evenodd" d="M895.504 250.061L875.11 30.3145L895.504 250.061Z" fill="white"/>
<path fill-rule="evenodd" clip-rule="evenodd" d="M875.39 30.2866L895.786 250.035L895.219 250.086L874.83 30.3396L875.39 30.2866Z" fill="white"/>
<path fill-rule="evenodd" clip-rule="evenodd" d="M895.504 250.061L858.116 46.1733L895.504 250.061Z" fill="white"/>
<path fill-rule="evenodd" clip-rule="evenodd" d="M858.396 46.1228L895.779 250.01L895.223 250.111L857.835 46.2243L858.396 46.1228Z" fill="white"/>
<path fill-rule="evenodd" clip-rule="evenodd" d="M895.504 250.06L711.966 191.16L895.504 250.06Z" fill="white"/>
<path fill-rule="evenodd" clip-rule="evenodd" d="M712.049 190.89L895.589 249.791L895.417 250.331L711.881 191.429L712.049 190.89Z" fill="white"/>
<path fill-rule="evenodd" clip-rule="evenodd" d="M895.504 250.06L787.873 187.763L895.504 250.06Z" fill="white"/>
<path fill-rule="evenodd" clip-rule="evenodd" d="M788.014 187.517L895.643 249.815L895.361 250.307L787.73 188.009L788.014 187.517Z" fill="white"/>
<path fill-rule="evenodd" clip-rule="evenodd" d="M895.504 250.06L983.873 251.194L895.504 250.06Z" fill="white"/>
<path fill-rule="evenodd" clip-rule="evenodd" d="M895.508 249.778L983.875 250.912L983.871 251.479L895.499 250.345L895.508 249.778Z" fill="white"/>
<path fill-rule="evenodd" clip-rule="evenodd" d="M895.504 250.06L824.128 312.36L895.504 250.06Z" fill="white"/>
<path fill-rule="evenodd" clip-rule="evenodd" d="M895.318 249.847L895.689 250.273L824.311 312.573L823.941 312.147L895.318 249.847Z" fill="white"/>
<path fill-rule="evenodd" clip-rule="evenodd" d="M895.504 250.06L935.159 457.349L895.504 250.06Z" fill="white"/>
<path fill-rule="evenodd" clip-rule="evenodd" d="M895.78 250.009L935.435 457.293L934.879 457.401L895.224 250.115L895.78 250.009Z" fill="white"/>
<path fill-rule="evenodd" clip-rule="evenodd" d="M895.504 250.06L935.159 457.349L895.504 250.06Z" fill="white"/>
<path fill-rule="evenodd" clip-rule="evenodd" d="M895.78 250.009L935.435 457.293L934.879 457.401L895.224 250.115L895.78 250.009Z" fill="white"/>
<path fill-rule="evenodd" clip-rule="evenodd" d="M1166.28 246.664L1109.63 169.637L1166.28 246.664Z" fill="white"/>
<path fill-rule="evenodd" clip-rule="evenodd" d="M1109.86 169.469L1166.51 246.496L1166.05 246.831L1109.4 169.804L1109.86 169.469Z" fill="white"/>
<path fill-rule="evenodd" clip-rule="evenodd" d="M1166.28 246.664L1310.16 303.299L1166.28 246.664Z" fill="white"/>
<path fill-rule="evenodd" clip-rule="evenodd" d="M1166.38 246.401L1310.27 303.036L1310.06 303.561L1166.17 246.926L1166.38 246.401Z" fill="white"/>
<path fill-rule="evenodd" clip-rule="evenodd" d="M1166.28 246.664L1058.65 69.9617L1166.28 246.664Z" fill="white"/>
<path fill-rule="evenodd" clip-rule="evenodd" d="M1058.89 69.8123L1166.52 246.514L1166.04 246.81L1058.4 70.1078L1058.89 69.8123Z" fill="white"/>
<path fill-rule="evenodd" clip-rule="evenodd" d="M1166.28 246.664L983.871 251.194L1166.28 246.664Z" fill="white"/>
<path fill-rule="evenodd" clip-rule="evenodd" d="M1166.27 246.379L1166.28 246.946L983.878 251.479L983.865 250.912L1166.27 246.379Z" fill="white"/>
<path fill-rule="evenodd" clip-rule="evenodd" d="M1166.28 246.664L1099.43 371.261L1166.28 246.664Z" fill="white"/>
<path fill-rule="evenodd" clip-rule="evenodd" d="M1166.03 246.53L1166.53 246.797L1099.68 371.394L1099.18 371.127L1166.03 246.53Z" fill="white"/>
<path fill-rule="evenodd" clip-rule="evenodd" d="M971.409 126.596L895.504 250.061L971.409 126.596Z" fill="white"/>
<path fill-rule="evenodd" clip-rule="evenodd" d="M971.167 126.447L971.655 126.745L895.744 250.208L895.263 249.913L971.167 126.447Z" fill="white"/>
<path fill-rule="evenodd" clip-rule="evenodd" d="M971.409 126.596L867.177 262.521L971.409 126.596Z" fill="white"/>
<path fill-rule="evenodd" clip-rule="evenodd" d="M971.185 126.421L971.635 126.768L867.403 262.693L866.953 262.347L971.185 126.421Z" fill="white"/>
<path fill-rule="evenodd" clip-rule="evenodd" d="M971.409 126.596L1109.63 169.637L971.409 126.596Z" fill="white"/>
<path fill-rule="evenodd" clip-rule="evenodd" d="M971.495 126.324L1109.71 169.368L1109.55 169.909L971.327 126.865L971.495 126.324Z" fill="white"/>
<path fill-rule="evenodd" clip-rule="evenodd" d="M971.409 126.596L875.111 30.3153L971.409 126.596Z" fill="white"/>
<path fill-rule="evenodd" clip-rule="evenodd" d="M875.31 30.1144L971.61 126.395L971.211 126.796L874.909 30.5158L875.31 30.1144Z" fill="white"/>
<path fill-rule="evenodd" clip-rule="evenodd" d="M971.409 126.596L857.691 46.172L971.409 126.596Z" fill="white"/>
<path fill-rule="evenodd" clip-rule="evenodd" d="M857.853 45.9417L971.575 126.363L971.244 126.826L857.529 46.4026L857.853 45.9417Z" fill="white"/>
<path fill-rule="evenodd" clip-rule="evenodd" d="M971.409 126.596L1058.65 69.9603L971.409 126.596Z" fill="white"/>
<path fill-rule="evenodd" clip-rule="evenodd" d="M1058.5 69.7219L1058.8 70.1984L971.564 126.834L971.258 126.357L1058.5 69.7219Z" fill="white"/>
<path fill-rule="evenodd" clip-rule="evenodd" d="M971.409 126.596L787.873 187.764L971.409 126.596Z" fill="white"/>
<path fill-rule="evenodd" clip-rule="evenodd" d="M971.323 126.327L971.499 126.863L787.963 188.031L787.783 187.493L971.323 126.327Z" fill="white"/>
<path fill-rule="evenodd" clip-rule="evenodd" d="M971.409 126.596L983.871 251.193L971.409 126.596Z" fill="white"/>
<path fill-rule="evenodd" clip-rule="evenodd" d="M971.693 126.568L984.153 251.167L983.591 251.222L971.128 126.623L971.693 126.568Z" fill="white"/>
<path fill-rule="evenodd" clip-rule="evenodd" d="M318.834 255.726L146.625 128.861L318.834 255.726Z" fill="white"/>
<path fill-rule="evenodd" clip-rule="evenodd" d="M146.794 128.634L319.003 255.498L318.666 255.952L146.458 129.09L146.794 128.634Z" fill="white"/>
<path fill-rule="evenodd" clip-rule="evenodd" d="M318.834 255.726L359.617 418.834L318.834 255.726Z" fill="white"/>
<path fill-rule="evenodd" clip-rule="evenodd" d="M319.105 255.656L359.893 418.767L359.346 418.904L318.558 255.793L319.105 255.656Z" fill="white"/>
<path fill-rule="evenodd" clip-rule="evenodd" d="M318.834 255.726L284.846 342.945L318.834 255.726Z" fill="white"/>
<path fill-rule="evenodd" clip-rule="evenodd" d="M318.567 255.62L319.096 255.829L285.109 343.047L284.579 342.842L318.567 255.62Z" fill="white"/>
<path fill-rule="evenodd" clip-rule="evenodd" d="M318.834 255.726L182.88 350.875L318.834 255.726Z" fill="white"/>
<path fill-rule="evenodd" clip-rule="evenodd" d="M318.67 255.491L318.993 255.958L183.039 351.105L182.717 350.642L318.67 255.491Z" fill="white"/>
<path fill-rule="evenodd" clip-rule="evenodd" d="M318.834 255.726L459.317 268.183L318.834 255.726Z" fill="white"/>
<path fill-rule="evenodd" clip-rule="evenodd" d="M318.856 255.443L459.343 267.901L459.29 268.466L318.809 256.008L318.856 255.443Z" fill="white"/>
<path fill-rule="evenodd" clip-rule="evenodd" d="M318.834 255.725L377.745 94.8801L318.834 255.725Z" fill="white"/>
<path fill-rule="evenodd" clip-rule="evenodd" d="M377.48 94.7836L378.012 94.9777L319.097 255.823L318.567 255.627L377.48 94.7836Z" fill="white"/>
<path fill-rule="evenodd" clip-rule="evenodd" d="M1097.07 371.261C1097.07 369.958 1098.13 368.901 1099.43 368.901C1100.74 368.901 1101.79 369.958 1101.79 371.261C1101.79 372.565 1100.74 373.619 1099.43 373.619C1098.13 373.619 1097.07 372.565 1097.07 371.261Z" fill="white"/>
<path fill-rule="evenodd" clip-rule="evenodd" d="M1097.07 371.261C1097.07 369.958 1098.13 368.901 1099.43 368.901C1100.74 368.901 1101.79 369.958 1101.79 371.261C1101.79 372.565 1100.74 373.619 1099.43 373.619C1098.13 373.619 1097.07 372.565 1097.07 371.261Z" fill="white"/>
<path fill-rule="evenodd" clip-rule="evenodd" d="M821.766 312.361C821.766 311.057 822.825 310.003 824.126 310.003C825.43 310.003 826.489 311.057 826.489 312.361C826.489 313.664 825.43 314.718 824.126 314.718C822.825 314.718 821.766 313.664 821.766 312.361Z" fill="white"/>
<path fill-rule="evenodd" clip-rule="evenodd" d="M821.766 312.361C821.766 311.057 822.825 310.003 824.126 310.003C825.43 310.003 826.489 311.057 826.489 312.361C826.489 313.664 825.43 314.718 824.126 314.718C822.825 314.718 821.766 313.664 821.766 312.361Z" fill="white"/>
<path fill-rule="evenodd" clip-rule="evenodd" d="M821.766 312.361C821.766 311.057 822.825 310.003 824.126 310.003C825.43 310.003 826.489 311.057 826.489 312.361C826.489 313.664 825.43 314.718 824.126 314.718C822.825 314.718 821.766 313.664 821.766 312.361Z" fill="white"/>
<path fill-rule="evenodd" clip-rule="evenodd" d="M981.513 251.194C981.513 249.89 982.568 248.836 983.872 248.836C985.175 248.836 986.232 249.89 986.232 251.194C986.232 252.497 985.175 253.554 983.872 253.554C982.568 253.554 981.513 252.497 981.513 251.194Z" fill="white"/>
<path fill-rule="evenodd" clip-rule="evenodd" d="M981.513 251.194C981.513 249.89 982.568 248.836 983.872 248.836C985.175 248.836 986.232 249.89 986.232 251.194C986.232 252.497 985.175 253.554 983.872 253.554C982.568 253.554 981.513 252.497 981.513 251.194Z" fill="white"/>
<path fill-rule="evenodd" clip-rule="evenodd" d="M981.513 251.194C981.513 249.89 982.568 248.836 983.872 248.836C985.175 248.836 986.232 249.89 986.232 251.194C986.232 252.497 985.175 253.554 983.872 253.554C982.568 253.554 981.513 252.497 981.513 251.194Z" fill="white"/>
<path fill-rule="evenodd" clip-rule="evenodd" d="M1097.07 371.261C1097.07 369.958 1098.13 368.901 1099.43 368.901C1100.74 368.901 1101.79 369.958 1101.79 371.261C1101.79 372.565 1100.74 373.619 1099.43 373.619C1098.13 373.619 1097.07 372.565 1097.07 371.261Z" fill="white"/>
<path fill-rule="evenodd" clip-rule="evenodd" d="M981.513 251.194C981.513 249.89 982.568 248.836 983.872 248.836C985.175 248.836 986.232 249.89 986.232 251.194C986.232 252.497 985.175 253.554 983.872 253.554C982.568 253.554 981.513 252.497 981.513 251.194Z" fill="white"/>
<path fill-rule="evenodd" clip-rule="evenodd" d="M821.766 312.361C821.766 311.057 822.825 310.003 824.126 310.003C825.43 310.003 826.489 311.057 826.489 312.361C826.489 313.664 825.43 314.718 824.126 314.718C822.825 314.718 821.766 313.664 821.766 312.361Z" fill="white"/>
<path fill-rule="evenodd" clip-rule="evenodd" d="M660.89 339.546C660.89 338.242 661.944 337.186 663.25 337.186C664.552 337.186 665.609 338.242 665.609 339.546C665.609 340.847 664.552 341.904 663.25 341.904C661.944 341.904 660.89 340.847 660.89 339.546Z" fill="white"/>
<path fill-rule="evenodd" clip-rule="evenodd" d="M660.89 339.546C660.89 338.242 661.944 337.186 663.25 337.186C664.552 337.186 665.609 338.242 665.609 339.546C665.609 340.847 664.552 341.904 663.25 341.904C661.944 341.904 660.89 340.847 660.89 339.546Z" fill="white"/>
<path fill-rule="evenodd" clip-rule="evenodd" d="M532.864 431.295C532.864 429.992 533.919 428.935 535.225 428.935C536.527 428.935 537.588 429.992 537.588 431.295C537.588 432.599 536.527 433.653 535.225 433.653C533.919 433.653 532.864 432.599 532.864 431.295Z" fill="white"/>
<path fill-rule="evenodd" clip-rule="evenodd" d="M532.864 431.295C532.864 429.992 533.919 428.935 535.225 428.935C536.527 428.935 537.588 429.992 537.588 431.295C537.588 432.599 536.527 433.653 535.225 433.653C533.919 433.653 532.864 432.599 532.864 431.295Z" fill="white"/>
<path fill-rule="evenodd" clip-rule="evenodd" d="M532.864 431.295C532.864 429.992 533.919 428.935 535.225 428.935C536.527 428.935 537.588 429.992 537.588 431.295C537.588 432.599 536.527 433.653 535.225 433.653C533.919 433.653 532.864 432.599 532.864 431.295Z" fill="white"/>
<path fill-rule="evenodd" clip-rule="evenodd" d="M660.89 339.546C660.89 338.242 661.944 337.186 663.25 337.186C664.552 337.186 665.609 338.242 665.609 339.546C665.609 340.847 664.552 341.904 663.25 341.904C661.944 341.904 660.89 340.847 660.89 339.546Z" fill="white"/>
<path fill-rule="evenodd" clip-rule="evenodd" d="M532.864 431.295C532.864 429.992 533.919 428.935 535.225 428.935C536.527 428.935 537.588 429.992 537.588 431.295C537.588 432.599 536.527 433.653 535.225 433.653C533.919 433.653 532.864 432.599 532.864 431.295Z" fill="white"/>
<path fill-rule="evenodd" clip-rule="evenodd" d="M660.89 339.546C660.89 338.242 661.944 337.186 663.25 337.186C664.552 337.186 665.609 338.242 665.609 339.546C665.609 340.847 664.552 341.904 663.25 341.904C661.944 341.904 660.89 340.847 660.89 339.546Z" fill="white"/>
<path fill-rule="evenodd" clip-rule="evenodd" d="M821.766 312.361C821.766 311.057 822.825 310.003 824.126 310.003C825.43 310.003 826.489 311.057 826.489 312.361C826.489 313.664 825.43 314.718 824.126 314.718C822.825 314.718 821.766 313.664 821.766 312.361Z" fill="white"/>
<path fill-rule="evenodd" clip-rule="evenodd" d="M660.89 339.546C660.89 338.242 661.944 337.186 663.25 337.186C664.552 337.186 665.609 338.242 665.609 339.546C665.609 340.847 664.552 341.904 663.25 341.904C661.944 341.904 660.89 340.847 660.89 339.546Z" fill="white"/>
<path fill-rule="evenodd" clip-rule="evenodd" d="M785.515 187.763C785.515 186.457 786.572 185.403 787.871 185.403C789.178 185.403 790.234 186.457 790.234 187.763C790.234 189.066 789.178 190.121 787.871 190.121C786.572 190.121 785.515 189.066 785.515 187.763Z" fill="white"/>
<path fill-rule="evenodd" clip-rule="evenodd" d="M981.513 251.194C981.513 249.89 982.568 248.836 983.872 248.836C985.175 248.836 986.232 249.89 986.232 251.194C986.232 252.497 985.175 253.554 983.872 253.554C982.568 253.554 981.513 252.497 981.513 251.194Z" fill="white"/>
<path fill-rule="evenodd" clip-rule="evenodd" d="M785.515 187.763C785.515 186.457 786.572 185.403 787.871 185.403C789.178 185.403 790.234 186.457 790.234 187.763C790.234 189.066 789.178 190.121 787.871 190.121C786.572 190.121 785.515 189.066 785.515 187.763Z" fill="white"/>
<path fill-rule="evenodd" clip-rule="evenodd" d="M821.766 312.361C821.766 311.057 822.825 310.003 824.126 310.003C825.43 310.003 826.489 311.057 826.489 312.361C826.489 313.664 825.43 314.718 824.126 314.718C822.825 314.718 821.766 313.664 821.766 312.361Z" fill="white"/>
<path fill-rule="evenodd" clip-rule="evenodd" d="M785.515 187.763C785.515 186.457 786.572 185.403 787.871 185.403C789.178 185.403 790.234 186.457 790.234 187.763C790.234 189.066 789.178 190.121 787.871 190.121C786.572 190.121 785.515 189.066 785.515 187.763Z" fill="white"/>
<path fill-rule="evenodd" clip-rule="evenodd" d="M546.459 142.454C546.459 141.15 547.518 140.096 548.819 140.096C550.123 140.096 551.182 141.15 551.182 142.454C551.182 143.757 550.123 144.811 548.819 144.811C547.518 144.811 546.459 143.757 546.459 142.454Z" fill="white"/>
<path fill-rule="evenodd" clip-rule="evenodd" d="M714.139 14.4568C714.139 13.1532 715.193 12.0967 716.495 12.0967C717.801 12.0967 718.858 13.1532 718.858 14.4568C718.858 15.7581 717.801 16.8146 716.495 16.8146C715.193 16.8146 714.139 15.7581 714.139 14.4568Z" fill="white"/>
<path fill-rule="evenodd" clip-rule="evenodd" d="M785.515 187.763C785.515 186.457 786.572 185.403 787.871 185.403C789.178 185.403 790.234 186.457 790.234 187.763C790.234 189.066 789.178 190.121 787.871 190.121C786.572 190.121 785.515 189.066 785.515 187.763Z" fill="white"/>
<path fill-rule="evenodd" clip-rule="evenodd" d="M714.139 14.4568C714.139 13.1532 715.193 12.0967 716.495 12.0967C717.801 12.0967 718.858 13.1532 718.858 14.4568C718.858 15.7581 717.801 16.8146 716.495 16.8146C715.193 16.8146 714.139 15.7581 714.139 14.4568Z" fill="white"/>
<path fill-rule="evenodd" clip-rule="evenodd" d="M546.459 142.454C546.459 141.15 547.518 140.096 548.819 140.096C550.123 140.096 551.182 141.15 551.182 142.454C551.182 143.757 550.123 144.811 548.819 144.811C547.518 144.811 546.459 143.757 546.459 142.454Z" fill="white"/>
<path fill-rule="evenodd" clip-rule="evenodd" d="M714.139 14.4568C714.139 13.1532 715.193 12.0967 716.495 12.0967C717.801 12.0967 718.858 13.1532 718.858 14.4568C718.858 15.7581 717.801 16.8146 716.495 16.8146C715.193 16.8146 714.139 15.7581 714.139 14.4568Z" fill="white"/>
<path fill-rule="evenodd" clip-rule="evenodd" d="M785.515 187.763C785.515 186.457 786.572 185.403 787.871 185.403C789.178 185.403 790.234 186.457 790.234 187.763C790.234 189.066 789.178 190.121 787.871 190.121C786.572 190.121 785.515 189.066 785.515 187.763Z" fill="white"/>
<path fill-rule="evenodd" clip-rule="evenodd" d="M714.139 14.4568C714.139 13.1532 715.193 12.0967 716.495 12.0967C717.801 12.0967 718.858 13.1532 718.858 14.4568C718.858 15.7581 717.801 16.8146 716.495 16.8146C715.193 16.8146 714.139 15.7581 714.139 14.4568Z" fill="white"/>
<path fill-rule="evenodd" clip-rule="evenodd" d="M546.459 142.454C546.459 141.15 547.518 140.096 548.819 140.096C550.123 140.096 551.182 141.15 551.182 142.454C551.182 143.757 550.123 144.811 548.819 144.811C547.518 144.811 546.459 143.757 546.459 142.454Z" fill="white"/>
<path fill-rule="evenodd" clip-rule="evenodd" d="M375.388 94.8803C375.388 93.5768 376.445 92.5203 377.744 92.5203C379.05 92.5203 380.107 93.5768 380.107 94.8803C380.107 96.1817 379.05 97.2382 377.744 97.2382C376.445 97.2382 375.388 96.1817 375.388 94.8803Z" fill="white"/>
<path fill-rule="evenodd" clip-rule="evenodd" d="M375.388 94.8803C375.388 93.5768 376.445 92.5203 377.744 92.5203C379.05 92.5203 380.107 93.5768 380.107 94.8803C380.107 96.1817 379.05 97.2382 377.744 97.2382C376.445 97.2382 375.388 96.1817 375.388 94.8803Z" fill="white"/>
<path fill-rule="evenodd" clip-rule="evenodd" d="M456.959 268.184C456.959 266.881 458.016 265.824 459.316 265.824C460.622 265.824 461.678 266.881 461.678 268.184C461.678 269.488 460.622 270.544 459.316 270.544C458.016 270.544 456.959 269.488 456.959 268.184Z" fill="white"/>
<path fill-rule="evenodd" clip-rule="evenodd" d="M546.459 142.454C546.459 141.15 547.518 140.096 548.819 140.096C550.123 140.096 551.182 141.15 551.182 142.454C551.182 143.757 550.123 144.811 548.819 144.811C547.518 144.811 546.459 143.757 546.459 142.454Z" fill="white"/>
<path fill-rule="evenodd" clip-rule="evenodd" d="M456.959 268.184C456.959 266.881 458.016 265.824 459.316 265.824C460.622 265.824 461.678 266.881 461.678 268.184C461.678 269.488 460.622 270.544 459.316 270.544C458.016 270.544 456.959 269.488 456.959 268.184Z" fill="white"/>
<path fill-rule="evenodd" clip-rule="evenodd" d="M532.864 431.295C532.864 429.992 533.919 428.935 535.225 428.935C536.527 428.935 537.588 429.992 537.588 431.295C537.588 432.599 536.527 433.653 535.225 433.653C533.919 433.653 532.864 432.599 532.864 431.295Z" fill="white"/>
<path fill-rule="evenodd" clip-rule="evenodd" d="M456.959 268.184C456.959 266.881 458.016 265.824 459.316 265.824C460.622 265.824 461.678 266.881 461.678 268.184C461.678 269.488 460.622 270.544 459.316 270.544C458.016 270.544 456.959 269.488 456.959 268.184Z" fill="white"/>
<path fill-rule="evenodd" clip-rule="evenodd" d="M660.89 339.546C660.89 338.242 661.944 337.186 663.25 337.186C664.552 337.186 665.609 338.242 665.609 339.546C665.609 340.847 664.552 341.904 663.25 341.904C661.944 341.904 660.89 340.847 660.89 339.546Z" fill="white"/>
<path fill-rule="evenodd" clip-rule="evenodd" d="M456.959 268.184C456.959 266.881 458.016 265.824 459.316 265.824C460.622 265.824 461.678 266.881 461.678 268.184C461.678 269.488 460.622 270.544 459.316 270.544C458.016 270.544 456.959 269.488 456.959 268.184Z" fill="white"/>
<path fill-rule="evenodd" clip-rule="evenodd" d="M714.139 14.4568C714.139 13.1532 715.193 12.0967 716.495 12.0967C717.801 12.0967 718.858 13.1532 718.858 14.4568C718.858 15.7581 717.801 16.8146 716.495 16.8146C715.193 16.8146 714.139 15.7581 714.139 14.4568Z" fill="white"/>
<path fill-rule="evenodd" clip-rule="evenodd" d="M709.606 191.16C709.606 189.856 710.66 188.802 711.964 188.802C713.268 188.802 714.325 189.856 714.325 191.16C714.325 192.463 713.268 193.52 711.964 193.52C710.66 193.52 709.606 192.463 709.606 191.16Z" fill="white"/>
<path fill-rule="evenodd" clip-rule="evenodd" d="M714.139 14.4568C714.139 13.1532 715.193 12.0967 716.495 12.0967C717.801 12.0967 718.858 13.1532 718.858 14.4568C718.858 15.7581 717.801 16.8146 716.495 16.8146C715.193 16.8146 714.139 15.7581 714.139 14.4568Z" fill="white"/>
<path fill-rule="evenodd" clip-rule="evenodd" d="M709.606 191.16C709.606 189.856 710.66 188.802 711.964 188.802C713.268 188.802 714.325 189.856 714.325 191.16C714.325 192.463 713.268 193.52 711.964 193.52C710.66 193.52 709.606 192.463 709.606 191.16Z" fill="white"/>
<path fill-rule="evenodd" clip-rule="evenodd" d="M546.459 142.454C546.459 141.15 547.518 140.096 548.819 140.096C550.123 140.096 551.182 141.15 551.182 142.454C551.182 143.757 550.123 144.811 548.819 144.811C547.518 144.811 546.459 143.757 546.459 142.454Z" fill="white"/>
<path fill-rule="evenodd" clip-rule="evenodd" d="M709.606 191.16C709.606 189.856 710.66 188.802 711.964 188.802C713.268 188.802 714.325 189.856 714.325 191.16C714.325 192.463 713.268 193.52 711.964 193.52C710.66 193.52 709.606 192.463 709.606 191.16Z" fill="white"/>
<path fill-rule="evenodd" clip-rule="evenodd" d="M785.515 187.763C785.515 186.457 786.572 185.403 787.871 185.403C789.178 185.403 790.234 186.457 790.234 187.763C790.234 189.066 789.178 190.121 787.871 190.121C786.572 190.121 785.515 189.066 785.515 187.763Z" fill="white"/>
<path fill-rule="evenodd" clip-rule="evenodd" d="M709.606 191.16C709.606 189.856 710.66 188.802 711.964 188.802C713.268 188.802 714.325 189.856 714.325 191.16C714.325 192.463 713.268 193.52 711.964 193.52C710.66 193.52 709.606 192.463 709.606 191.16Z" fill="white"/>
<path fill-rule="evenodd" clip-rule="evenodd" d="M660.89 339.546C660.89 338.242 661.944 337.186 663.25 337.186C664.552 337.186 665.609 338.242 665.609 339.546C665.609 340.847 664.552 341.904 663.25 341.904C661.944 341.904 660.89 340.847 660.89 339.546Z" fill="white"/>
<path fill-rule="evenodd" clip-rule="evenodd" d="M709.606 191.16C709.606 189.856 710.66 188.802 711.964 188.802C713.268 188.802 714.325 189.856 714.325 191.16C714.325 192.463 713.268 193.52 711.964 193.52C710.66 193.52 709.606 192.463 709.606 191.16Z" fill="white"/>
<path fill-rule="evenodd" clip-rule="evenodd" d="M821.766 312.361C821.766 311.057 822.825 310.003 824.126 310.003C825.43 310.003 826.489 311.057 826.489 312.361C826.489 313.664 825.43 314.718 824.126 314.718C822.825 314.718 821.766 313.664 821.766 312.361Z" fill="white"/>
<path fill-rule="evenodd" clip-rule="evenodd" d="M709.606 191.16C709.606 189.856 710.66 188.802 711.964 188.802C713.268 188.802 714.325 189.856 714.325 191.16C714.325 192.463 713.268 193.52 711.964 193.52C710.66 193.52 709.606 192.463 709.606 191.16Z" fill="white"/>
<path fill-rule="evenodd" clip-rule="evenodd" d="M282.484 342.945C282.484 341.641 283.541 340.585 284.845 340.585C286.147 340.585 287.205 341.641 287.205 342.945C287.205 344.246 286.147 345.303 284.845 345.303C283.541 345.303 282.484 344.246 282.484 342.945Z" fill="white"/>
<path fill-rule="evenodd" clip-rule="evenodd" d="M180.519 350.874C180.519 349.568 181.576 348.514 182.88 348.514C184.181 348.514 185.24 349.568 185.24 350.874C185.24 352.177 184.181 353.232 182.88 353.232C181.576 353.232 180.519 352.177 180.519 350.874Z" fill="white"/>
<path fill-rule="evenodd" clip-rule="evenodd" d="M357.256 418.834C357.256 417.533 358.317 416.477 359.617 416.477C360.923 416.477 361.98 417.533 361.98 418.834C361.98 420.138 360.923 421.195 359.617 421.195C358.317 421.195 357.256 420.138 357.256 418.834Z" fill="white"/>
<path fill-rule="evenodd" clip-rule="evenodd" d="M282.484 342.945C282.484 341.641 283.541 340.585 284.845 340.585C286.147 340.585 287.205 341.641 287.205 342.945C287.205 344.246 286.147 345.303 284.845 345.303C283.541 345.303 282.484 344.246 282.484 342.945Z" fill="white"/>
<path fill-rule="evenodd" clip-rule="evenodd" d="M357.256 418.834C357.256 417.533 358.317 416.477 359.617 416.477C360.923 416.477 361.98 417.533 361.98 418.834C361.98 420.138 360.923 421.195 359.617 421.195C358.317 421.195 357.256 420.138 357.256 418.834Z" fill="white"/>
<path fill-rule="evenodd" clip-rule="evenodd" d="M180.519 350.874C180.519 349.568 181.576 348.514 182.88 348.514C184.181 348.514 185.24 349.568 185.24 350.874C185.24 352.177 184.181 353.232 182.88 353.232C181.576 353.232 180.519 352.177 180.519 350.874Z" fill="white"/>
<path fill-rule="evenodd" clip-rule="evenodd" d="M357.256 418.834C357.256 417.533 358.317 416.477 359.617 416.477C360.923 416.477 361.98 417.533 361.98 418.834C361.98 420.138 360.923 421.195 359.617 421.195C358.317 421.195 357.256 420.138 357.256 418.834Z" fill="white"/>
<path fill-rule="evenodd" clip-rule="evenodd" d="M456.959 268.184C456.959 266.881 458.016 265.824 459.316 265.824C460.622 265.824 461.678 266.881 461.678 268.184C461.678 269.488 460.622 270.544 459.316 270.544C458.016 270.544 456.959 269.488 456.959 268.184Z" fill="white"/>
<path fill-rule="evenodd" clip-rule="evenodd" d="M357.256 418.834C357.256 417.533 358.317 416.477 359.617 416.477C360.923 416.477 361.98 417.533 361.98 418.834C361.98 420.138 360.923 421.195 359.617 421.195C358.317 421.195 357.256 420.138 357.256 418.834Z" fill="white"/>
<path fill-rule="evenodd" clip-rule="evenodd" d="M357.256 418.834C357.256 417.533 358.317 416.477 359.617 416.477C360.923 416.477 361.98 417.533 361.98 418.834C361.98 420.138 360.923 421.195 359.617 421.195C358.317 421.195 357.256 420.138 357.256 418.834Z" fill="white"/>
<path fill-rule="evenodd" clip-rule="evenodd" d="M357.256 418.834C357.256 417.533 358.317 416.477 359.617 416.477C360.923 416.477 361.98 417.533 361.98 418.834C361.98 420.138 360.923 421.195 359.617 421.195C358.317 421.195 357.256 420.138 357.256 418.834Z" fill="white"/>
<path fill-rule="evenodd" clip-rule="evenodd" d="M532.864 431.295C532.864 429.992 533.919 428.935 535.225 428.935C536.527 428.935 537.588 429.992 537.588 431.295C537.588 432.599 536.527 433.653 535.225 433.653C533.919 433.653 532.864 432.599 532.864 431.295Z" fill="white"/>
<path fill-rule="evenodd" clip-rule="evenodd" d="M357.256 418.834C357.256 417.533 358.317 416.477 359.617 416.477C360.923 416.477 361.98 417.533 361.98 418.834C361.98 420.138 360.923 421.195 359.617 421.195C358.317 421.195 357.256 420.138 357.256 418.834Z" fill="white"/>
<path fill-rule="evenodd" clip-rule="evenodd" d="M180.519 350.874C180.519 349.568 181.576 348.514 182.88 348.514C184.181 348.514 185.24 349.568 185.24 350.874C185.24 352.177 184.181 353.232 182.88 353.232C181.576 353.232 180.519 352.177 180.519 350.874Z" fill="white"/>
<path fill-rule="evenodd" clip-rule="evenodd" d="M144.264 128.862C144.264 127.556 145.321 126.502 146.625 126.502C147.929 126.502 148.986 127.556 148.986 128.862C148.986 130.165 147.929 131.22 146.625 131.22C145.321 131.22 144.264 130.165 144.264 128.862Z" fill="white"/>
<path fill-rule="evenodd" clip-rule="evenodd" d="M144.264 128.862C144.264 127.556 145.321 126.502 146.625 126.502C147.929 126.502 148.986 127.556 148.986 128.862C148.986 130.165 147.929 131.22 146.625 131.22C145.321 131.22 144.264 130.165 144.264 128.862Z" fill="white"/>
<path fill-rule="evenodd" clip-rule="evenodd" d="M8.31076 276.113C8.31076 274.81 9.3675 273.755 10.6713 273.755C11.973 273.755 13.0319 274.81 13.0319 276.113C13.0319 277.417 11.973 278.473 10.6713 278.473C9.3675 278.473 8.31076 277.417 8.31076 276.113Z" fill="white"/>
<path fill-rule="evenodd" clip-rule="evenodd" d="M8.31076 276.113C8.31076 274.81 9.3675 273.755 10.6713 273.755C11.973 273.755 13.0319 274.81 13.0319 276.113C13.0319 277.417 11.973 278.473 10.6713 278.473C9.3675 278.473 8.31076 277.417 8.31076 276.113Z" fill="white"/>
<path fill-rule="evenodd" clip-rule="evenodd" d="M180.519 350.874C180.519 349.568 181.576 348.514 182.88 348.514C184.181 348.514 185.24 349.568 185.24 350.874C185.24 352.177 184.181 353.232 182.88 353.232C181.576 353.232 180.519 352.177 180.519 350.874Z" fill="white"/>
<path fill-rule="evenodd" clip-rule="evenodd" d="M8.31076 276.113C8.31076 274.81 9.3675 273.755 10.6713 273.755C11.973 273.755 13.0319 274.81 13.0319 276.113C13.0319 277.417 11.973 278.473 10.6713 278.473C9.3675 278.473 8.31076 277.417 8.31076 276.113Z" fill="white"/>
<path fill-rule="evenodd" clip-rule="evenodd" d="M981.513 251.194C981.513 249.89 982.568 248.836 983.872 248.836C985.175 248.836 986.232 249.89 986.232 251.194C986.232 252.497 985.175 253.554 983.872 253.554C982.568 253.554 981.513 252.497 981.513 251.194Z" fill="white"/>
<path fill-rule="evenodd" clip-rule="evenodd" d="M1056.29 69.9609C1056.29 68.6551 1057.34 67.6008 1058.65 67.6008C1059.95 67.6008 1061.01 68.6551 1061.01 69.9609C1061.01 71.2623 1059.95 72.3188 1058.65 72.3188C1057.34 72.3188 1056.29 71.2623 1056.29 69.9609Z" fill="white"/>
<path fill-rule="evenodd" clip-rule="evenodd" d="M1056.29 69.9609C1056.29 68.6551 1057.34 67.6008 1058.65 67.6008C1059.95 67.6008 1061.01 68.6551 1061.01 69.9609C1061.01 71.2623 1059.95 72.3188 1058.65 72.3188C1057.34 72.3188 1056.29 71.2623 1056.29 69.9609Z" fill="white"/>
<path fill-rule="evenodd" clip-rule="evenodd" d="M872.748 30.3147C872.748 29.0111 873.807 27.9568 875.109 27.9568C876.411 27.9568 877.472 29.0111 877.472 30.3147C877.472 31.6182 876.411 32.6748 875.109 32.6748C873.807 32.6748 872.748 31.6182 872.748 30.3147Z" fill="white"/>
<path fill-rule="evenodd" clip-rule="evenodd" d="M714.139 14.4568C714.139 13.1532 715.193 12.0967 716.495 12.0967C717.801 12.0967 718.858 13.1532 718.858 14.4568C718.858 15.7581 717.801 16.8146 716.495 16.8146C715.193 16.8146 714.139 15.7581 714.139 14.4568Z" fill="white"/>
<path fill-rule="evenodd" clip-rule="evenodd" d="M872.748 30.3147C872.748 29.0111 873.807 27.9568 875.109 27.9568C876.411 27.9568 877.472 29.0111 877.472 30.3147C877.472 31.6182 876.411 32.6748 875.109 32.6748C873.807 32.6748 872.748 31.6182 872.748 30.3147Z" fill="white"/>
<path fill-rule="evenodd" clip-rule="evenodd" d="M714.139 14.4568C714.139 13.1532 715.193 12.0967 716.495 12.0967C717.801 12.0967 718.858 13.1532 718.858 14.4568C718.858 15.7581 717.801 16.8146 716.495 16.8146C715.193 16.8146 714.139 15.7581 714.139 14.4568Z" fill="white"/>
<path fill-rule="evenodd" clip-rule="evenodd" d="M872.748 30.3147C872.748 29.0111 873.807 27.9568 875.109 27.9568C876.411 27.9568 877.472 29.0111 877.472 30.3147C877.472 31.6182 876.411 32.6748 875.109 32.6748C873.807 32.6748 872.748 31.6182 872.748 30.3147Z" fill="white"/>
<path fill-rule="evenodd" clip-rule="evenodd" d="M785.515 187.763C785.515 186.457 786.572 185.403 787.871 185.403C789.178 185.403 790.234 186.457 790.234 187.763C790.234 189.066 789.178 190.121 787.871 190.121C786.572 190.121 785.515 189.066 785.515 187.763Z" fill="white"/>
<path fill-rule="evenodd" clip-rule="evenodd" d="M872.748 30.3147C872.748 29.0111 873.807 27.9568 875.109 27.9568C876.411 27.9568 877.472 29.0111 877.472 30.3147C877.472 31.6182 876.411 32.6748 875.109 32.6748C873.807 32.6748 872.748 31.6182 872.748 30.3147Z" fill="white"/>
<path fill-rule="evenodd" clip-rule="evenodd" d="M1097.07 371.261C1097.07 369.958 1098.13 368.901 1099.43 368.901C1100.74 368.901 1101.79 369.958 1101.79 371.261C1101.79 372.565 1100.74 373.619 1099.43 373.619C1098.13 373.619 1097.07 372.565 1097.07 371.261Z" fill="white"/>
<path fill-rule="evenodd" clip-rule="evenodd" d="M1056.29 69.9609C1056.29 68.6551 1057.34 67.6008 1058.65 67.6008C1059.95 67.6008 1061.01 68.6551 1061.01 69.9609C1061.01 71.2623 1059.95 72.3188 1058.65 72.3188C1057.34 72.3188 1056.29 71.2623 1056.29 69.9609Z" fill="white"/>
<path fill-rule="evenodd" clip-rule="evenodd" d="M1107.27 169.637C1107.27 168.336 1108.33 167.281 1109.63 167.281C1110.93 167.281 1111.99 168.336 1111.99 169.637C1111.99 170.943 1110.93 171.997 1109.63 171.997C1108.33 171.997 1107.27 170.943 1107.27 169.637Z" fill="white"/>
<path fill-rule="evenodd" clip-rule="evenodd" d="M981.513 251.194C981.513 249.89 982.568 248.836 983.872 248.836C985.175 248.836 986.232 249.89 986.232 251.194C986.232 252.497 985.175 253.554 983.872 253.554C982.568 253.554 981.513 252.497 981.513 251.194Z" fill="white"/>
<path fill-rule="evenodd" clip-rule="evenodd" d="M1107.27 169.637C1107.27 168.336 1108.33 167.281 1109.63 167.281C1110.93 167.281 1111.99 168.336 1111.99 169.637C1111.99 170.943 1110.93 171.997 1109.63 171.997C1108.33 171.997 1107.27 170.943 1107.27 169.637Z" fill="white"/>
<path fill-rule="evenodd" clip-rule="evenodd" d="M1097.07 371.261C1097.07 369.958 1098.13 368.901 1099.43 368.901C1100.74 368.901 1101.79 369.958 1101.79 371.261C1101.79 372.565 1100.74 373.619 1099.43 373.619C1098.13 373.619 1097.07 372.565 1097.07 371.261Z" fill="white"/>
<path fill-rule="evenodd" clip-rule="evenodd" d="M1107.27 169.637C1107.27 168.336 1108.33 167.281 1109.63 167.281C1110.93 167.281 1111.99 168.336 1111.99 169.637C1111.99 170.943 1110.93 171.997 1109.63 171.997C1108.33 171.997 1107.27 170.943 1107.27 169.637Z" fill="white"/>
<path fill-rule="evenodd" clip-rule="evenodd" d="M1056.29 69.9609C1056.29 68.6551 1057.34 67.6008 1058.65 67.6008C1059.95 67.6008 1061.01 68.6551 1061.01 69.9609C1061.01 71.2623 1059.95 72.3188 1058.65 72.3188C1057.34 72.3188 1056.29 71.2623 1056.29 69.9609Z" fill="white"/>
<path fill-rule="evenodd" clip-rule="evenodd" d="M872.748 30.3147C872.748 29.0111 873.807 27.9568 875.109 27.9568C876.411 27.9568 877.472 29.0111 877.472 30.3147C877.472 31.6182 876.411 32.6748 875.109 32.6748C873.807 32.6748 872.748 31.6182 872.748 30.3147Z" fill="white"/>
<path fill-rule="evenodd" clip-rule="evenodd" d="M855.754 46.1722C855.754 44.8686 856.813 43.8143 858.115 43.8143C859.419 43.8143 860.478 44.8686 860.478 46.1722C860.478 47.4758 859.419 48.5301 858.115 48.5301C856.813 48.5301 855.754 47.4758 855.754 46.1722Z" fill="white"/>
<path fill-rule="evenodd" clip-rule="evenodd" d="M714.139 14.4568C714.139 13.1532 715.193 12.0967 716.495 12.0967C717.801 12.0967 718.858 13.1532 718.858 14.4568C718.858 15.7581 717.801 16.8146 716.495 16.8146C715.193 16.8146 714.139 15.7581 714.139 14.4568Z" fill="white"/>
<path fill-rule="evenodd" clip-rule="evenodd" d="M714.139 14.4568C714.139 13.1532 715.193 12.0967 716.495 12.0967C717.801 12.0967 718.858 13.1532 718.858 14.4568C718.858 15.7581 717.801 16.8146 716.495 16.8146C715.193 16.8146 714.139 15.7581 714.139 14.4568Z" fill="white"/>
<path fill-rule="evenodd" clip-rule="evenodd" d="M375.388 94.8803C375.388 93.5768 376.445 92.5203 377.744 92.5203C379.05 92.5203 380.107 93.5768 380.107 94.8803C380.107 96.1817 379.05 97.2382 377.744 97.2382C376.445 97.2382 375.388 96.1817 375.388 94.8803Z" fill="white"/>
<path fill-rule="evenodd" clip-rule="evenodd" d="M546.459 142.454C546.459 141.15 547.518 140.096 548.819 140.096C550.123 140.096 551.182 141.15 551.182 142.454C551.182 143.757 550.123 144.811 548.819 144.811C547.518 144.811 546.459 143.757 546.459 142.454Z" fill="white"/>
<path fill-rule="evenodd" clip-rule="evenodd" d="M709.606 191.16C709.606 189.856 710.66 188.802 711.964 188.802C713.268 188.802 714.325 189.856 714.325 191.16C714.325 192.463 713.268 193.52 711.964 193.52C710.66 193.52 709.606 192.463 709.606 191.16Z" fill="white"/>
<path fill-rule="evenodd" clip-rule="evenodd" d="M540.797 201.354C540.797 200.051 541.852 198.997 543.155 198.997C544.459 198.997 545.516 200.051 545.516 201.354C545.516 202.658 544.459 203.712 543.155 203.712C541.852 203.712 540.797 202.658 540.797 201.354Z" fill="white"/>
<path fill-rule="evenodd" clip-rule="evenodd" d="M456.959 268.184C456.959 266.881 458.016 265.824 459.316 265.824C460.622 265.824 461.678 266.881 461.678 268.184C461.678 269.488 460.622 270.544 459.316 270.544C458.016 270.544 456.959 269.488 456.959 268.184Z" fill="white"/>
<path fill-rule="evenodd" clip-rule="evenodd" d="M540.797 201.354C540.797 200.051 541.852 198.997 543.155 198.997C544.459 198.997 545.516 200.051 545.516 201.354C545.516 202.658 544.459 203.712 543.155 203.712C541.852 203.712 540.797 202.658 540.797 201.354Z" fill="white"/>
<path fill-rule="evenodd" clip-rule="evenodd" d="M375.388 94.8803C375.388 93.5768 376.445 92.5203 377.744 92.5203C379.05 92.5203 380.107 93.5768 380.107 94.8803C380.107 96.1817 379.05 97.2382 377.744 97.2382C376.445 97.2382 375.388 96.1817 375.388 94.8803Z" fill="white"/>
<path fill-rule="evenodd" clip-rule="evenodd" d="M540.797 201.354C540.797 200.051 541.852 198.997 543.155 198.997C544.459 198.997 545.516 200.051 545.516 201.354C545.516 202.658 544.459 203.712 543.155 203.712C541.852 203.712 540.797 202.658 540.797 201.354Z" fill="white"/>
<path fill-rule="evenodd" clip-rule="evenodd" d="M546.459 142.454C546.459 141.15 547.518 140.096 548.819 140.096C550.123 140.096 551.182 141.15 551.182 142.454C551.182 143.757 550.123 144.811 548.819 144.811C547.518 144.811 546.459 143.757 546.459 142.454Z" fill="white"/>
<path fill-rule="evenodd" clip-rule="evenodd" d="M540.797 201.354C540.797 200.051 541.852 198.997 543.155 198.997C544.459 198.997 545.516 200.051 545.516 201.354C545.516 202.658 544.459 203.712 543.155 203.712C541.852 203.712 540.797 202.658 540.797 201.354Z" fill="white"/>
<path fill-rule="evenodd" clip-rule="evenodd" d="M660.89 339.546C660.89 338.242 661.944 337.186 663.25 337.186C664.552 337.186 665.609 338.242 665.609 339.546C665.609 340.847 664.552 341.904 663.25 341.904C661.944 341.904 660.89 340.847 660.89 339.546Z" fill="white"/>
<path fill-rule="evenodd" clip-rule="evenodd" d="M540.797 201.354C540.797 200.051 541.852 198.997 543.155 198.997C544.459 198.997 545.516 200.051 545.516 201.354C545.516 202.658 544.459 203.712 543.155 203.712C541.852 203.712 540.797 202.658 540.797 201.354Z" fill="white"/>
<path fill-rule="evenodd" clip-rule="evenodd" d="M709.606 191.16C709.606 189.856 710.66 188.802 711.964 188.802C713.268 188.802 714.325 189.856 714.325 191.16C714.325 192.463 713.268 193.52 711.964 193.52C710.66 193.52 709.606 192.463 709.606 191.16Z" fill="white"/>
<path fill-rule="evenodd" clip-rule="evenodd" d="M727.733 398.447C727.733 397.143 728.788 396.087 730.089 396.087C731.396 396.087 732.452 397.143 732.452 398.447C732.452 399.75 731.396 400.805 730.089 400.805C728.788 400.805 727.733 399.75 727.733 398.447Z" fill="white"/>
<path fill-rule="evenodd" clip-rule="evenodd" d="M785.515 187.763C785.515 186.457 786.572 185.403 787.871 185.403C789.178 185.403 790.234 186.457 790.234 187.763C790.234 189.066 789.178 190.121 787.871 190.121C786.572 190.121 785.515 189.066 785.515 187.763Z" fill="white"/>
<path fill-rule="evenodd" clip-rule="evenodd" d="M727.733 398.447C727.733 397.143 728.788 396.087 730.089 396.087C731.396 396.087 732.452 397.143 732.452 398.447C732.452 399.75 731.396 400.805 730.089 400.805C728.788 400.805 727.733 399.75 727.733 398.447Z" fill="white"/>
<path fill-rule="evenodd" clip-rule="evenodd" d="M727.733 398.447C727.733 397.143 728.788 396.087 730.089 396.087C731.396 396.087 732.452 397.143 732.452 398.447C732.452 399.75 731.396 400.805 730.089 400.805C728.788 400.805 727.733 399.75 727.733 398.447Z" fill="white"/>
<path fill-rule="evenodd" clip-rule="evenodd" d="M727.733 398.447C727.733 397.143 728.788 396.087 730.089 396.087C731.396 396.087 732.452 397.143 732.452 398.447C732.452 399.75 731.396 400.805 730.089 400.805C728.788 400.805 727.733 399.75 727.733 398.447Z" fill="white"/>
<path fill-rule="evenodd" clip-rule="evenodd" d="M532.864 431.295C532.864 429.992 533.919 428.935 535.225 428.935C536.527 428.935 537.588 429.992 537.588 431.295C537.588 432.599 536.527 433.653 535.225 433.653C533.919 433.653 532.864 432.599 532.864 431.295Z" fill="white"/>
<path fill-rule="evenodd" clip-rule="evenodd" d="M727.733 398.447C727.733 397.143 728.788 396.087 730.089 396.087C731.396 396.087 732.452 397.143 732.452 398.447C732.452 399.75 731.396 400.805 730.089 400.805C728.788 400.805 727.733 399.75 727.733 398.447Z" fill="white"/>
<path fill-rule="evenodd" clip-rule="evenodd" d="M660.89 339.546C660.89 338.242 661.944 337.186 663.25 337.186C664.552 337.186 665.609 338.242 665.609 339.546C665.609 340.847 664.552 341.904 663.25 341.904C661.944 341.904 660.89 340.847 660.89 339.546Z" fill="white"/>
<path fill-rule="evenodd" clip-rule="evenodd" d="M727.733 398.447C727.733 397.143 728.788 396.087 730.089 396.087C731.396 396.087 732.452 397.143 732.452 398.447C732.452 399.75 731.396 400.805 730.089 400.805C728.788 400.805 727.733 399.75 727.733 398.447Z" fill="white"/>
<path fill-rule="evenodd" clip-rule="evenodd" d="M821.766 312.361C821.766 311.057 822.825 310.003 824.126 310.003C825.43 310.003 826.489 311.057 826.489 312.361C826.489 313.664 825.43 314.718 824.126 314.718C822.825 314.718 821.766 313.664 821.766 312.361Z" fill="white"/>
<path fill-rule="evenodd" clip-rule="evenodd" d="M727.733 398.447C727.733 397.143 728.788 396.087 730.089 396.087C731.396 396.087 732.452 397.143 732.452 398.447C732.452 399.75 731.396 400.805 730.089 400.805C728.788 400.805 727.733 399.75 727.733 398.447Z" fill="white"/>
<path fill-rule="evenodd" clip-rule="evenodd" d="M727.733 398.447C727.733 397.143 728.788 396.087 730.089 396.087C731.396 396.087 732.452 397.143 732.452 398.447C732.452 399.75 731.396 400.805 730.089 400.805C728.788 400.805 727.733 399.75 727.733 398.447Z" fill="white"/>
<path fill-rule="evenodd" clip-rule="evenodd" d="M727.733 398.447C727.733 397.143 728.788 396.087 730.089 396.087C731.396 396.087 732.452 397.143 732.452 398.447C732.452 399.75 731.396 400.805 730.089 400.805C728.788 400.805 727.733 399.75 727.733 398.447Z" fill="white"/>
<path fill-rule="evenodd" clip-rule="evenodd" d="M864.82 262.521C864.82 261.218 865.875 260.161 867.176 260.161C868.482 260.161 869.539 261.218 869.539 262.521C869.539 263.825 868.482 264.879 867.176 264.879C865.875 264.879 864.82 263.825 864.82 262.521Z" fill="white"/>
<path fill-rule="evenodd" clip-rule="evenodd" d="M893.143 250.061C893.143 248.757 894.199 247.703 895.503 247.703C896.805 247.703 897.866 248.757 897.866 250.061C897.866 251.364 896.805 252.421 895.503 252.421C894.199 252.421 893.143 251.364 893.143 250.061Z" fill="white"/>
<path fill-rule="evenodd" clip-rule="evenodd" d="M872.748 30.3147C872.748 29.0111 873.807 27.9568 875.109 27.9568C876.411 27.9568 877.472 29.0111 877.472 30.3147C877.472 31.6182 876.411 32.6748 875.109 32.6748C873.807 32.6748 872.748 31.6182 872.748 30.3147Z" fill="white"/>
<path fill-rule="evenodd" clip-rule="evenodd" d="M893.143 250.061C893.143 248.757 894.199 247.703 895.503 247.703C896.805 247.703 897.866 248.757 897.866 250.061C897.866 251.364 896.805 252.421 895.503 252.421C894.199 252.421 893.143 251.364 893.143 250.061Z" fill="white"/>
<path fill-rule="evenodd" clip-rule="evenodd" d="M855.754 46.1722C855.754 44.8686 856.813 43.8143 858.115 43.8143C859.419 43.8143 860.478 44.8686 860.478 46.1722C860.478 47.4758 859.419 48.5301 858.115 48.5301C856.813 48.5301 855.754 47.4758 855.754 46.1722Z" fill="white"/>
<path fill-rule="evenodd" clip-rule="evenodd" d="M893.143 250.061C893.143 248.757 894.199 247.703 895.503 247.703C896.805 247.703 897.866 248.757 897.866 250.061C897.866 251.364 896.805 252.421 895.503 252.421C894.199 252.421 893.143 251.364 893.143 250.061Z" fill="white"/>
<path fill-rule="evenodd" clip-rule="evenodd" d="M709.606 191.16C709.606 189.856 710.66 188.802 711.964 188.802C713.268 188.802 714.325 189.856 714.325 191.16C714.325 192.463 713.268 193.52 711.964 193.52C710.66 193.52 709.606 192.463 709.606 191.16Z" fill="white"/>
<path fill-rule="evenodd" clip-rule="evenodd" d="M893.143 250.061C893.143 248.757 894.199 247.703 895.503 247.703C896.805 247.703 897.866 248.757 897.866 250.061C897.866 251.364 896.805 252.421 895.503 252.421C894.199 252.421 893.143 251.364 893.143 250.061Z" fill="white"/>
<path fill-rule="evenodd" clip-rule="evenodd" d="M785.515 187.763C785.515 186.457 786.572 185.403 787.871 185.403C789.178 185.403 790.234 186.457 790.234 187.763C790.234 189.066 789.178 190.121 787.871 190.121C786.572 190.121 785.515 189.066 785.515 187.763Z" fill="white"/>
<path fill-rule="evenodd" clip-rule="evenodd" d="M893.143 250.061C893.143 248.757 894.199 247.703 895.503 247.703C896.805 247.703 897.866 248.757 897.866 250.061C897.866 251.364 896.805 252.421 895.503 252.421C894.199 252.421 893.143 251.364 893.143 250.061Z" fill="white"/>
<path fill-rule="evenodd" clip-rule="evenodd" d="M981.513 251.194C981.513 249.89 982.568 248.836 983.872 248.836C985.175 248.836 986.232 249.89 986.232 251.194C986.232 252.497 985.175 253.554 983.872 253.554C982.568 253.554 981.513 252.497 981.513 251.194Z" fill="white"/>
<path fill-rule="evenodd" clip-rule="evenodd" d="M893.143 250.061C893.143 248.757 894.199 247.703 895.503 247.703C896.805 247.703 897.866 248.757 897.866 250.061C897.866 251.364 896.805 252.421 895.503 252.421C894.199 252.421 893.143 251.364 893.143 250.061Z" fill="white"/>
<path fill-rule="evenodd" clip-rule="evenodd" d="M821.766 312.361C821.766 311.057 822.825 310.003 824.126 310.003C825.43 310.003 826.489 311.057 826.489 312.361C826.489 313.664 825.43 314.718 824.126 314.718C822.825 314.718 821.766 313.664 821.766 312.361Z" fill="white"/>
<path fill-rule="evenodd" clip-rule="evenodd" d="M893.143 250.061C893.143 248.757 894.199 247.703 895.503 247.703C896.805 247.703 897.866 248.757 897.866 250.061C897.866 251.364 896.805 252.421 895.503 252.421C894.199 252.421 893.143 251.364 893.143 250.061Z" fill="white"/>
<path fill-rule="evenodd" clip-rule="evenodd" d="M893.143 250.061C893.143 248.757 894.199 247.703 895.503 247.703C896.805 247.703 897.866 248.757 897.866 250.061C897.866 251.364 896.805 252.421 895.503 252.421C894.199 252.421 893.143 251.364 893.143 250.061Z" fill="white"/>
<path fill-rule="evenodd" clip-rule="evenodd" d="M893.143 250.061C893.143 248.757 894.199 247.703 895.503 247.703C896.805 247.703 897.866 248.757 897.866 250.061C897.866 251.364 896.805 252.421 895.503 252.421C894.199 252.421 893.143 251.364 893.143 250.061Z" fill="white"/>
<path fill-rule="evenodd" clip-rule="evenodd" d="M1107.27 169.637C1107.27 168.336 1108.33 167.281 1109.63 167.281C1110.93 167.281 1111.99 168.336 1111.99 169.637C1111.99 170.943 1110.93 171.997 1109.63 171.997C1108.33 171.997 1107.27 170.943 1107.27 169.637Z" fill="white"/>
<path fill-rule="evenodd" clip-rule="evenodd" d="M1163.92 246.664C1163.92 245.358 1164.97 244.306 1166.28 244.306C1167.58 244.306 1168.64 245.358 1168.64 246.664C1168.64 247.967 1167.58 249.022 1166.28 249.022C1164.97 249.022 1163.92 247.967 1163.92 246.664Z" fill="white"/>
<path fill-rule="evenodd" clip-rule="evenodd" d="M1163.92 246.664C1163.92 245.358 1164.97 244.306 1166.28 244.306C1167.58 244.306 1168.64 245.358 1168.64 246.664C1168.64 247.967 1167.58 249.022 1166.28 249.022C1164.97 249.022 1163.92 247.967 1163.92 246.664Z" fill="white"/>
<path fill-rule="evenodd" clip-rule="evenodd" d="M1056.29 69.9609C1056.29 68.6551 1057.34 67.6008 1058.65 67.6008C1059.95 67.6008 1061.01 68.6551 1061.01 69.9609C1061.01 71.2623 1059.95 72.3188 1058.65 72.3188C1057.34 72.3188 1056.29 71.2623 1056.29 69.9609Z" fill="white"/>
<path fill-rule="evenodd" clip-rule="evenodd" d="M1163.92 246.664C1163.92 245.358 1164.97 244.306 1166.28 244.306C1167.58 244.306 1168.64 245.358 1168.64 246.664C1168.64 247.967 1167.58 249.022 1166.28 249.022C1164.97 249.022 1163.92 247.967 1163.92 246.664Z" fill="white"/>
<path fill-rule="evenodd" clip-rule="evenodd" d="M981.513 251.194C981.513 249.89 982.568 248.836 983.872 248.836C985.175 248.836 986.232 249.89 986.232 251.194C986.232 252.497 985.175 253.554 983.872 253.554C982.568 253.554 981.513 252.497 981.513 251.194Z" fill="white"/>
<path fill-rule="evenodd" clip-rule="evenodd" d="M1163.92 246.664C1163.92 245.358 1164.97 244.306 1166.28 244.306C1167.58 244.306 1168.64 245.358 1168.64 246.664C1168.64 247.967 1167.58 249.022 1166.28 249.022C1164.97 249.022 1163.92 247.967 1163.92 246.664Z" fill="white"/>
<path fill-rule="evenodd" clip-rule="evenodd" d="M1097.07 371.261C1097.07 369.958 1098.13 368.901 1099.43 368.901C1100.74 368.901 1101.79 369.958 1101.79 371.261C1101.79 372.565 1100.74 373.619 1099.43 373.619C1098.13 373.619 1097.07 372.565 1097.07 371.261Z" fill="white"/>
<path fill-rule="evenodd" clip-rule="evenodd" d="M1163.92 246.664C1163.92 245.358 1164.97 244.306 1166.28 244.306C1167.58 244.306 1168.64 245.358 1168.64 246.664C1168.64 247.967 1167.58 249.022 1166.28 249.022C1164.97 249.022 1163.92 247.967 1163.92 246.664Z" fill="white"/>
<path fill-rule="evenodd" clip-rule="evenodd" d="M893.143 250.061C893.143 248.757 894.199 247.703 895.503 247.703C896.805 247.703 897.866 248.757 897.866 250.061C897.866 251.364 896.805 252.421 895.503 252.421C894.199 252.421 893.143 251.364 893.143 250.061Z" fill="white"/>
<path fill-rule="evenodd" clip-rule="evenodd" d="M969.05 126.596C969.05 125.292 970.106 124.236 971.408 124.236C972.714 124.236 973.771 125.292 973.771 126.596C973.771 127.899 972.714 128.954 971.408 128.954C970.106 128.954 969.05 127.899 969.05 126.596Z" fill="white"/>
<path fill-rule="evenodd" clip-rule="evenodd" d="M864.82 262.521C864.82 261.218 865.875 260.161 867.176 260.161C868.482 260.161 869.539 261.218 869.539 262.521C869.539 263.825 868.482 264.879 867.176 264.879C865.875 264.879 864.82 263.825 864.82 262.521Z" fill="white"/>
<path fill-rule="evenodd" clip-rule="evenodd" d="M969.05 126.596C969.05 125.292 970.106 124.236 971.408 124.236C972.714 124.236 973.771 125.292 973.771 126.596C973.771 127.899 972.714 128.954 971.408 128.954C970.106 128.954 969.05 127.899 969.05 126.596Z" fill="white"/>
<path fill-rule="evenodd" clip-rule="evenodd" d="M1107.27 169.637C1107.27 168.336 1108.33 167.281 1109.63 167.281C1110.93 167.281 1111.99 168.336 1111.99 169.637C1111.99 170.943 1110.93 171.997 1109.63 171.997C1108.33 171.997 1107.27 170.943 1107.27 169.637Z" fill="white"/>
<path fill-rule="evenodd" clip-rule="evenodd" d="M969.05 126.596C969.05 125.292 970.106 124.236 971.408 124.236C972.714 124.236 973.771 125.292 973.771 126.596C973.771 127.899 972.714 128.954 971.408 128.954C970.106 128.954 969.05 127.899 969.05 126.596Z" fill="white"/>
<path fill-rule="evenodd" clip-rule="evenodd" d="M872.748 30.3147C872.748 29.0111 873.807 27.9568 875.109 27.9568C876.411 27.9568 877.472 29.0111 877.472 30.3147C877.472 31.6182 876.411 32.6748 875.109 32.6748C873.807 32.6748 872.748 31.6182 872.748 30.3147Z" fill="white"/>
<path fill-rule="evenodd" clip-rule="evenodd" d="M969.05 126.596C969.05 125.292 970.106 124.236 971.408 124.236C972.714 124.236 973.771 125.292 973.771 126.596C973.771 127.899 972.714 128.954 971.408 128.954C970.106 128.954 969.05 127.899 969.05 126.596Z" fill="white"/>
<path fill-rule="evenodd" clip-rule="evenodd" d="M855.332 46.1722C855.332 44.8686 856.387 43.8143 857.69 43.8143C858.994 43.8143 860.051 44.8686 860.051 46.1722C860.051 47.4758 858.994 48.5301 857.69 48.5301C856.387 48.5301 855.332 47.4758 855.332 46.1722Z" fill="white"/>
<path fill-rule="evenodd" clip-rule="evenodd" d="M969.05 126.596C969.05 125.292 970.106 124.236 971.408 124.236C972.714 124.236 973.771 125.292 973.771 126.596C973.771 127.899 972.714 128.954 971.408 128.954C970.106 128.954 969.05 127.899 969.05 126.596Z" fill="white"/>
<path fill-rule="evenodd" clip-rule="evenodd" d="M1056.29 69.9609C1056.29 68.6551 1057.34 67.6008 1058.65 67.6008C1059.95 67.6008 1061.01 68.6551 1061.01 69.9609C1061.01 71.2623 1059.95 72.3188 1058.65 72.3188C1057.34 72.3188 1056.29 71.2623 1056.29 69.9609Z" fill="white"/>
<path fill-rule="evenodd" clip-rule="evenodd" d="M969.05 126.596C969.05 125.292 970.106 124.236 971.408 124.236C972.714 124.236 973.771 125.292 973.771 126.596C973.771 127.899 972.714 128.954 971.408 128.954C970.106 128.954 969.05 127.899 969.05 126.596Z" fill="white"/>
<path fill-rule="evenodd" clip-rule="evenodd" d="M785.515 187.763C785.515 186.457 786.572 185.403 787.871 185.403C789.178 185.403 790.234 186.457 790.234 187.763C790.234 189.066 789.178 190.121 787.871 190.121C786.572 190.121 785.515 189.066 785.515 187.763Z" fill="white"/>
<path fill-rule="evenodd" clip-rule="evenodd" d="M969.05 126.596C969.05 125.292 970.106 124.236 971.408 124.236C972.714 124.236 973.771 125.292 973.771 126.596C973.771 127.899 972.714 128.954 971.408 128.954C970.106 128.954 969.05 127.899 969.05 126.596Z" fill="white"/>
<path fill-rule="evenodd" clip-rule="evenodd" d="M981.513 251.194C981.513 249.89 982.568 248.836 983.872 248.836C985.175 248.836 986.232 249.89 986.232 251.194C986.232 252.497 985.175 253.554 983.872 253.554C982.568 253.554 981.513 252.497 981.513 251.194Z" fill="white"/>
<path fill-rule="evenodd" clip-rule="evenodd" d="M969.05 126.596C969.05 125.292 970.106 124.236 971.408 124.236C972.714 124.236 973.771 125.292 973.771 126.596C973.771 127.899 972.714 128.954 971.408 128.954C970.106 128.954 969.05 127.899 969.05 126.596Z" fill="white"/>
<path fill-rule="evenodd" clip-rule="evenodd" d="M144.264 128.862C144.264 127.556 145.321 126.502 146.625 126.502C147.929 126.502 148.986 127.556 148.986 128.862C148.986 130.165 147.929 131.22 146.625 131.22C145.321 131.22 144.264 130.165 144.264 128.862Z" fill="white"/>
<path fill-rule="evenodd" clip-rule="evenodd" d="M316.473 255.726C316.473 254.422 317.53 253.365 318.833 253.365C320.135 253.365 321.192 254.422 321.192 255.726C321.192 257.027 320.135 258.083 318.833 258.083C317.53 258.083 316.473 257.027 316.473 255.726Z" fill="white"/>
<path fill-rule="evenodd" clip-rule="evenodd" d="M357.256 418.834C357.256 417.533 358.317 416.477 359.617 416.477C360.923 416.477 361.98 417.533 361.98 418.834C361.98 420.138 360.923 421.195 359.617 421.195C358.317 421.195 357.256 420.138 357.256 418.834Z" fill="white"/>
<path fill-rule="evenodd" clip-rule="evenodd" d="M316.473 255.726C316.473 254.422 317.53 253.365 318.833 253.365C320.135 253.365 321.192 254.422 321.192 255.726C321.192 257.027 320.135 258.083 318.833 258.083C317.53 258.083 316.473 257.027 316.473 255.726Z" fill="white"/>
<path fill-rule="evenodd" clip-rule="evenodd" d="M282.484 342.945C282.484 341.641 283.541 340.585 284.845 340.585C286.147 340.585 287.205 341.641 287.205 342.945C287.205 344.246 286.147 345.303 284.845 345.303C283.541 345.303 282.484 344.246 282.484 342.945Z" fill="white"/>
<path fill-rule="evenodd" clip-rule="evenodd" d="M316.473 255.726C316.473 254.422 317.53 253.365 318.833 253.365C320.135 253.365 321.192 254.422 321.192 255.726C321.192 257.027 320.135 258.083 318.833 258.083C317.53 258.083 316.473 257.027 316.473 255.726Z" fill="white"/>
<path fill-rule="evenodd" clip-rule="evenodd" d="M180.519 350.874C180.519 349.568 181.576 348.514 182.88 348.514C184.181 348.514 185.24 349.568 185.24 350.874C185.24 352.177 184.181 353.232 182.88 353.232C181.576 353.232 180.519 352.177 180.519 350.874Z" fill="white"/>
<path fill-rule="evenodd" clip-rule="evenodd" d="M316.473 255.726C316.473 254.422 317.53 253.365 318.833 253.365C320.135 253.365 321.192 254.422 321.192 255.726C321.192 257.027 320.135 258.083 318.833 258.083C317.53 258.083 316.473 257.027 316.473 255.726Z" fill="white"/>
<path fill-rule="evenodd" clip-rule="evenodd" d="M456.959 268.184C456.959 266.881 458.016 265.824 459.316 265.824C460.622 265.824 461.678 266.881 461.678 268.184C461.678 269.488 460.622 270.544 459.316 270.544C458.016 270.544 456.959 269.488 456.959 268.184Z" fill="white"/>
<path fill-rule="evenodd" clip-rule="evenodd" d="M316.473 255.726C316.473 254.422 317.53 253.365 318.833 253.365C320.135 253.365 321.192 254.422 321.192 255.726C321.192 257.027 320.135 258.083 318.833 258.083C317.53 258.083 316.473 257.027 316.473 255.726Z" fill="white"/>
<path fill-rule="evenodd" clip-rule="evenodd" d="M375.388 94.8803C375.388 93.5768 376.445 92.5203 377.744 92.5203C379.05 92.5203 380.107 93.5768 380.107 94.8803C380.107 96.1817 379.05 97.2382 377.744 97.2382C376.445 97.2382 375.388 96.1817 375.388 94.8803Z" fill="white"/>
<path fill-rule="evenodd" clip-rule="evenodd" d="M316.473 255.726C316.473 254.422 317.53 253.365 318.833 253.365C320.135 253.365 321.192 254.422 321.192 255.726C321.192 257.027 320.135 258.083 318.833 258.083C317.53 258.083 316.473 257.027 316.473 255.726Z" fill="white"/>
</g>
</g>
</svg>
