<svg width="85" height="85" viewBox="0 0 85 85" fill="none" xmlns="http://www.w3.org/2000/svg">
<path fill-rule="evenodd" clip-rule="evenodd" d="M32.5833 53.8333H38.25H32.5833ZM38.25 53.8333C39.0319 53.8333 39.6666 53.1985 39.6666 52.4166L38.25 53.8333ZM39.6666 52.4166V43.9166V52.4166ZM39.6666 43.9166C39.6666 43.1346 39.0319 42.5 38.25 42.5L39.6666 43.9166ZM38.25 42.5H32.5834H38.25ZM32.5834 42.5C31.8015 42.5 31.1668 43.1346 31.1668 43.9166L32.5834 42.5ZM31.1668 43.9166L31.1666 52.4166L31.1668 43.9166ZM36.8334 45.3334H34V51H36.8334V45.3334Z" fill="#6F9CD6"/>
<path fill-rule="evenodd" clip-rule="evenodd" d="M38.25 36.8334H32.5834C31.8013 36.8334 31.1666 36.1986 31.1667 35.4167V26.9167C31.1667 26.1348 31.8015 25.5001 32.5834 25.5001H38.25C39.0319 25.5001 39.6666 26.1348 39.6666 26.9167V35.4167C39.6666 36.1986 39.0319 36.8334 38.25 36.8334ZM36.8334 28.3334H34V34H36.8334V28.3334Z" fill="#6F9CD6"/>
<path d="M21.9796 26.7141L42.5 14.4019L63.0204 26.7141C63.2485 26.8515 63.5006 26.9166 63.7485 26.9166C64.2301 26.9166 64.6991 26.6716 64.9641 26.2295C65.3678 25.5579 65.1497 24.6882 64.4796 24.2858L43.9166 11.9481V2.83339H51V5.66678H46.75C45.9681 5.66678 45.3334 6.30146 45.3334 7.08339C45.3334 7.86532 45.9681 8.5 46.75 8.5H52.4166C53.1985 8.5 53.8332 7.86532 53.8332 7.08339V1.41661C53.8332 0.634678 53.1985 0 52.4166 0H42.5C41.7181 0 41.0834 0.634678 41.0834 1.41661V11.9481L20.5205 24.2859C19.8505 24.6882 19.6323 25.5581 20.0361 26.2296C20.4368 26.8997 21.3094 27.1178 21.9796 26.7141Z" fill="#6F9CD6"/>
<path d="M15.5834 53.8333C16.3653 53.8333 17 53.1987 17 52.4167V43.9167C17 43.1348 16.3653 42.5001 15.5834 42.5001H9.91661C9.13468 42.5001 8.5 43.1348 8.5 43.9167V46.75C8.5 47.5319 9.13468 48.1666 9.91661 48.1666C10.6985 48.1666 11.3332 47.5319 11.3332 46.75V45.3333H14.1666V52.4167C14.1666 53.1987 14.8013 53.8333 15.5834 53.8333Z" fill="#6F9CD6"/>
<path d="M25.5 72.25V31.1666C25.5 30.3847 24.8653 29.75 24.0834 29.75C23.3014 29.75 22.6667 30.3847 22.6667 31.1666V72.25C22.6667 73.0319 23.3014 73.6666 24.0834 73.6666C24.8653 73.6666 25.5 73.0319 25.5 72.25Z" fill="#6F9CD6"/>
<path fill-rule="evenodd" clip-rule="evenodd" d="M18.4166 79.3334H66.5833C67.3652 79.3334 67.9998 78.6987 67.9998 77.9169C67.9998 77.1349 67.3652 76.5002 66.5833 76.5002H53.8333V62.3336H55.2498C56.0317 62.3336 56.6664 61.6989 56.6664 60.917C56.6664 60.135 56.0317 59.5004 55.2498 59.5004H29.75C28.9681 59.5004 28.3334 60.135 28.3334 60.917C28.3334 61.6989 28.9681 62.3336 29.75 62.3336H31.1666V76.5H18.4166C17.6347 76.5 17 77.1348 17 77.9166C17 78.6986 17.6347 79.3334 18.4166 79.3334ZM43.9166 70.8335C44.6985 70.8335 45.3333 70.1987 45.3333 69.4169C45.3333 68.6349 44.6985 68.0002 43.9166 68.0002V62.3336H51V76.5001H43.9166V70.8335ZM41.0834 62.3334H34V76.5H41.0834V70.8333C40.3015 70.8333 39.6667 70.1985 39.6667 69.4166C39.6667 68.6346 40.3015 68 41.0834 68V62.3334Z" fill="#6F9CD6"/>
<path fill-rule="evenodd" clip-rule="evenodd" d="M69.4168 60.9166H75.0834C75.8654 60.9166 76.5 61.5513 76.5 62.3333V70.8333C76.5 71.6151 75.8654 72.2499 75.0834 72.2499H69.4168C68.6349 72.2499 68.0002 71.6151 68.0002 70.8333V62.3333C68.0002 61.5513 68.6349 60.9166 69.4168 60.9166ZM70.8333 69.4166H73.6666V63.75H70.8333V69.4166Z" fill="#6F9CD6"/>
<path fill-rule="evenodd" clip-rule="evenodd" d="M69.4168 43.9166H75.0834C75.8654 43.9166 76.5 44.5513 76.5 45.3333V53.8333C76.5 54.6151 75.8654 55.2499 75.0834 55.2499H69.4168C68.6349 55.2499 68.0002 54.6151 68.0002 53.8333V45.3333C68.0002 44.5513 68.6349 43.9166 69.4168 43.9166ZM70.8333 52.4166H73.6666V46.75H70.8333V52.4166Z" fill="#6F9CD6"/>
<path d="M72.25 82.1666H12.75C11.9681 82.1666 11.3334 82.8013 11.3334 83.5832C11.3334 84.3652 11.9681 85 12.75 85H72.25C73.0319 85 73.6666 84.3653 73.6666 83.5834C73.6666 82.8015 73.0319 82.1666 72.25 82.1666Z" fill="#6F9CD6"/>
<path d="M83.5834 31.1666C82.8014 31.1666 82.1667 31.8013 82.1667 32.5832V33.9998H66.5834C65.8014 33.9998 65.1667 34.6345 65.1667 35.4165C65.1667 36.1984 65.8014 36.8331 66.5834 36.8331H82.1667V83.5831C82.1667 84.365 82.8014 84.9997 83.5834 84.9997C84.3653 84.9997 85 84.365 85 83.5831V32.5831C85 31.8013 84.3653 31.1666 83.5834 31.1666Z" fill="#6F9CD6"/>
<path fill-rule="evenodd" clip-rule="evenodd" d="M46.75 53.8333C45.9681 53.8333 45.3334 53.1985 45.3334 52.4166V43.9166C45.3334 43.1346 45.9681 42.5 46.75 42.5H52.4166C53.1985 42.5 53.8332 43.1346 53.8332 43.9166V52.4166C53.8332 53.1985 53.1985 53.8333 52.4166 53.8333H46.75ZM51 45.3334H48.1666V51H51V45.3334Z" fill="#6F9CD6"/>
<path fill-rule="evenodd" clip-rule="evenodd" d="M7.08325 51C14.0859 51 14.1666 69.2325 14.1666 69.4166C14.1666 72.8379 11.7285 75.6981 8.49982 76.3569V83.5834C8.49982 84.3654 7.86517 85 7.08325 85C6.30127 85 5.66663 84.3654 5.66663 83.5834V76.3569C2.43811 75.6981 0 72.8379 0 69.4166C0 69.2325 0.0806885 51 7.08325 51ZM2.83337 69.4166C2.83337 71.7598 4.74023 73.6666 7.08337 73.6666C9.42651 73.6666 11.3334 71.7598 11.3334 69.4166C11.3334 62.3588 9.43781 53.8333 7.08337 53.8333C4.72894 53.8333 2.83337 62.3588 2.83337 69.4166Z" fill="#6F9CD6"/>
<path d="M62.3334 72.25V29.75C62.3334 28.9681 61.6987 28.3334 60.9168 28.3334C60.1349 28.3334 59.5002 28.9681 59.5002 29.75V72.25C59.5002 73.0319 60.1349 73.6666 60.9168 73.6666C61.6987 73.6666 62.3334 73.0319 62.3334 72.25Z" fill="#6F9CD6"/>
<path fill-rule="evenodd" clip-rule="evenodd" d="M52.4166 36.8334H46.75C45.9681 36.8334 45.3334 36.1986 45.3334 35.4167V26.9167C45.3334 26.1348 45.9681 25.5001 46.75 25.5001H52.4166C53.1985 25.5001 53.8332 26.1348 53.8332 26.9167V35.4167C53.8332 36.1986 53.1985 36.8334 52.4166 36.8334ZM51 28.3334H48.1666V34H51V28.3334Z" fill="#6F9CD6"/>
<path d="M1.41661 49.5834C2.19854 49.5834 2.83322 48.9488 2.83322 48.1668V36.8334H18.4166C19.1985 36.8334 19.8332 36.1988 19.8332 35.4168C19.8332 34.6349 19.1985 34.0002 18.4166 34.0002H2.83339V32.5836C2.83339 31.8017 2.19871 31.167 1.41678 31.167C0.634844 31.167 0 31.8013 0 32.5834V48.1668C0 48.9488 0.634678 49.5834 1.41661 49.5834Z" fill="#6F9CD6"/>
</svg>
