<svg width="78" height="78" viewBox="0 0 78 78" fill="none" xmlns="http://www.w3.org/2000/svg">
<path fill-rule="evenodd" clip-rule="evenodd" d="M67.4932 12.3735L67.5376 12.4213C74.2936 19.6627 78 29.0458 78 39C78 49.4171 73.9432 59.2108 66.5771 66.5771C59.211 73.9434 49.4171 78 39 78C28.5829 78 18.789 73.9434 11.423 66.5771C4.05661 59.211 0 49.4171 0 39C0 28.5829 4.05661 18.789 11.423 11.4229C18.789 4.05658 28.5829 0 39 0C48.8835 0 58.2043 3.65381 65.4243 10.3196L65.455 10.3478C65.6647 10.5419 65.8727 10.738 66.0788 10.9369L66.0908 10.9482L66.1061 10.9631L66.1167 10.9738L66.2077 11.0618C66.3313 11.1815 66.455 11.3011 66.577 11.423C66.7032 11.5493 66.827 11.6772 66.9508 11.8053L67.0262 11.8832L67.037 11.8941L67.052 11.9092C67.0552 11.9124 67.0584 11.9158 67.0616 11.9193L67.0658 11.9238C67.2098 12.0726 67.3519 12.2227 67.4932 12.3735ZM63.6905 27.7881L70.6749 20.8038C66.8562 14.1822 61.0213 8.86322 54.0145 5.6922L47.8046 11.9023C47.642 12.0651 47.6419 12.3297 47.8046 12.4924L63.1005 27.7883C63.2068 27.8945 63.3307 27.9105 63.3953 27.9105C63.46 27.9105 63.5842 27.8945 63.6905 27.7881ZM55.9141 32.8994C57.864 34.8492 57.864 38.0219 55.9143 39.9715L54.8858 40.9998V32.7241C54.8858 30.3605 53.0016 28.3745 50.686 28.2972C49.9403 28.2723 49.2171 28.4338 48.5719 28.7619C48.1869 26.7878 46.4868 25.249 44.4536 25.1811C43.7044 25.1556 42.9848 25.3176 42.3395 25.6456C41.9545 23.6715 40.2544 22.1327 38.2211 22.0648C37.0279 22.0251 35.9051 22.4583 35.0509 23.2845C34.3844 23.9293 33.9515 24.746 33.793 25.6384C33.1517 25.3151 32.4355 25.1559 31.6931 25.1809C29.377 25.2583 27.4932 27.2441 27.4932 29.6077V34.9535C26.8689 34.6524 26.1745 34.5046 25.4609 34.5294C23.1448 34.6068 21.2609 36.5925 21.2609 38.9563V39.2278C20.7446 38.306 20.4671 37.249 20.5061 36.2147C20.5358 35.4279 20.7966 33.9724 22.209 33.0646C22.2463 33.0406 22.2825 33.0142 22.3177 32.9858C22.3224 32.9819 22.3268 32.9779 22.3312 32.9739C22.3356 32.9698 22.3401 32.9658 22.3447 32.962L22.351 32.9567L22.3521 32.9558L22.3546 32.9537C22.3718 32.939 22.3888 32.9244 22.4053 32.9084L25.9106 29.4744C26.3963 28.9985 26.4044 28.2186 25.9283 27.7328C25.4522 27.2468 24.6727 27.2391 24.1867 27.715L21.5522 30.2957L18.8783 27.6218L26.9127 19.5872L30.3574 16.1426L33.0228 18.8081L32.0291 19.8184C31.5521 20.3033 31.5586 21.0832 32.0434 21.56C32.5283 22.0367 33.308 22.0306 33.785 21.5455L35.5305 19.7709C35.5668 19.7419 35.6021 19.7116 35.6353 19.6784C36.578 18.7355 37.8312 18.2158 39.1644 18.2139C40.4975 18.2158 41.7507 18.7355 42.6934 19.6784C42.7283 19.7133 42.7655 19.7451 42.8039 19.7751L48.2159 25.187C48.697 25.668 49.4767 25.668 49.9576 25.187C50.4386 24.7061 50.4386 23.9262 49.9576 23.4454L45.3128 18.8008L47.9711 16.1425L59.4502 27.6216L55.9141 31.1577C55.4332 31.6386 55.4332 32.4185 55.9141 32.8994ZM51.542 4.68103C47.6289 3.24658 43.4043 2.46307 39 2.46307C34.6864 2.46307 30.5458 3.21674 26.7005 4.59576L32.2658 10.1613C33.3887 11.2845 33.3887 13.1118 32.2658 14.2347L32.099 14.4015L34.8316 17.1341C35.8465 16.4089 37.0174 15.955 38.2579 15.8069C38.2756 15.8046 38.2933 15.8023 38.3108 15.8003C38.3844 15.7919 38.4581 15.7849 38.5322 15.7788C38.5751 15.7751 38.6184 15.7722 38.6613 15.7692L38.6736 15.7684C38.7294 15.7647 38.7852 15.761 38.8414 15.7587C38.929 15.7549 39.0168 15.7531 39.1048 15.7523C39.1132 15.7523 39.1216 15.752 39.1298 15.7516C39.1389 15.7513 39.148 15.751 39.1571 15.751L39.1639 15.7511L39.1708 15.751C39.1788 15.751 39.1868 15.7512 39.1947 15.7515L39.1985 15.7516C39.2067 15.752 39.2148 15.7523 39.223 15.7523C39.3111 15.7531 39.3988 15.7549 39.4864 15.7587C39.5469 15.7613 39.6071 15.7653 39.6671 15.7692C39.7099 15.772 39.7527 15.7748 39.7954 15.7785C39.87 15.7846 39.9444 15.7916 40.0184 15.8L40.0397 15.8026L40.0467 15.8034L40.0681 15.8061C41.3111 15.954 42.4836 16.4083 43.4975 17.1329L46.2295 14.4009L46.0627 14.2341C44.9397 13.1111 44.9397 11.2838 46.0627 10.1607L51.542 4.68103ZM24.2138 5.59222L30.5239 11.9023C30.6864 12.065 30.6866 12.3298 30.5239 12.4923L22.8759 20.1404L16.2708 26.7456C16.2706 26.7458 16.2705 26.7461 16.2702 26.7462L15.228 27.7884C15.0654 27.9509 14.8007 27.9509 14.6381 27.7884L7.44717 20.5975C11.3094 14.0009 17.1795 8.71771 24.2138 5.59222ZM24.3773 72.4794V63.895C24.3773 62.3068 25.6695 61.0146 27.2574 61.0146H27.4932V57.1439C23.9617 56.5551 21.2609 53.4777 21.2609 49.7816V42.933C19.2092 41.3563 17.9479 38.6915 18.0447 36.1221C18.1067 34.4762 18.6918 33.0371 19.7209 31.948L17.1362 29.3633L16.9696 29.53C16.4256 30.074 15.7022 30.3737 14.9329 30.3737C14.1636 30.3737 13.4402 30.074 12.8962 29.53L6.22705 22.861C3.81926 27.7308 2.4631 33.2096 2.4631 39C2.4631 53.9495 11.4895 66.8287 24.3773 72.4794ZM49.0119 74.1422C48.9918 74.1479 48.9718 74.1534 48.9517 74.1588L48.9046 74.1718C48.4569 74.298 48.005 74.4144 47.5506 74.5238C47.5045 74.5348 47.4585 74.5462 47.4126 74.5576C47.3515 74.5728 47.2905 74.588 47.2291 74.6021C47.135 74.6238 47.0404 74.6441 46.9457 74.6643L46.8116 74.6932C46.6047 74.7382 46.3978 74.7831 46.1902 74.8245C46.0883 74.845 45.9861 74.8643 45.8839 74.8836L45.8209 74.8955C45.5849 74.94 45.3486 74.9828 45.112 75.0226C43.1238 75.3589 41.0824 75.5366 39 75.5366C36.8876 75.5366 34.8172 75.3541 32.802 75.0082C32.6701 74.9857 32.5383 74.9631 32.4067 74.9391C32.223 74.9054 32.04 74.8699 31.8572 74.8335L31.7703 74.8165L31.757 74.8138C31.6998 74.8027 31.6425 74.7914 31.5854 74.7796C29.9617 74.4437 28.3781 73.9976 26.8404 73.4534V63.8947C26.8404 63.6643 27.0271 63.4774 27.2576 63.4774H37.1673C37.8475 63.4774 38.3988 62.9258 38.3988 62.2458C38.3988 61.5656 37.8474 61.0143 37.1673 61.0143H29.9567V56.0175C29.9567 55.3443 29.4179 54.7793 28.7448 54.7819C25.9784 54.7925 23.7245 52.5452 23.7245 49.7812V38.9562C23.7245 37.9061 24.5406 37.0245 25.5435 36.991C26.1205 36.9723 26.6669 37.2098 27.0477 37.6569C27.3468 38.0081 27.4938 38.4641 27.4938 38.9254V41.9395C27.4938 42.6139 28.0134 43.2019 28.6875 43.222C29.385 43.2429 29.9569 42.6838 29.9569 41.991V29.608C29.9569 28.5579 30.773 27.6764 31.776 27.6429C32.3068 27.6255 32.8055 27.8228 33.1788 28.1984C33.5415 28.5634 33.7262 29.0695 33.7262 29.584V41.9393C33.7262 42.6137 34.2458 43.2018 34.9199 43.2219C35.6174 43.2427 36.1893 42.6837 36.1893 41.9908V26.4594C36.1893 25.9984 36.3363 25.5427 36.6353 25.192C37.0165 24.745 37.5628 24.5072 38.1394 24.5264C39.1423 24.5599 39.9584 25.4415 39.9584 26.4916V41.9393C39.9584 42.6137 40.478 43.2018 41.1522 43.2219C41.8496 43.2427 42.4215 42.6837 42.4215 41.9908V29.581C42.4215 29.0707 42.6037 28.5688 42.9619 28.2051C43.3363 27.825 43.8313 27.6249 44.3716 27.6425C45.3745 27.676 46.1906 28.5576 46.1906 29.6075V41.9391C46.1906 42.6136 46.7104 43.2016 47.3844 43.2217C48.0818 43.2426 48.6537 42.6835 48.6537 41.9907V32.6901C48.6537 32.2286 48.8016 31.7726 49.1015 31.4219C49.4825 30.9765 50.0269 30.7388 50.604 30.7585C51.6069 30.792 52.4229 31.6736 52.4229 32.7236V49.7814C52.4229 52.5453 50.1689 54.7928 47.4025 54.782C46.7293 54.7794 46.1906 55.3445 46.1906 56.0177V61.0144H43.1664C42.4862 61.0144 41.9349 61.5659 41.9349 62.246C41.9349 62.9261 42.4864 63.4775 43.1664 63.4775H48.8897C49.12 63.4775 49.3068 63.6643 49.3068 63.8947V74.0543C49.2661 74.0662 49.2256 74.0785 49.1851 74.0908L49.1829 74.0914C49.126 74.1086 49.0691 74.1259 49.0119 74.1422ZM51.7699 63.8948V73.2322C65.6373 68.0425 75.5369 54.6564 75.5369 39C75.5369 33.2966 74.2223 27.8949 71.8819 23.0801L65.4323 29.53C64.8881 30.074 64.1647 30.3737 63.3954 30.3737C62.6261 30.3737 61.9029 30.074 61.3589 29.53L61.1922 29.3633L58.4552 32.1003C60.5359 35.0141 60.2698 39.0996 57.6563 41.7133L54.8955 44.4736L54.89 44.4785L54.8859 44.4821V49.7814C54.8859 53.4775 52.1852 56.5549 48.6537 57.1437V61.0144H48.8897C50.4779 61.0144 51.7699 62.3066 51.7699 63.8948Z" fill="#6F9CD6"/>
</svg>
