<svg width="79" height="78" viewBox="0 0 79 78" fill="none" xmlns="http://www.w3.org/2000/svg">
<path d="M75.0242 27.2103L68.5063 25.9044C68.0746 24.5261 67.521 23.1875 66.854 21.9087L70.5414 16.3667C71.6308 14.7294 71.4137 12.5313 70.0248 11.1395L67.2301 8.33945C65.8413 6.94779 63.6475 6.72978 62.0131 7.82178L56.4819 11.5164C55.2055 10.8481 53.8693 10.2934 52.4941 9.86091L51.1904 3.33023C50.8053 1.4005 49.1004 0 47.1364 0H43.1839C41.2201 0 39.5149 1.4005 39.1298 3.33023L37.8261 9.86091C36.4507 10.2934 35.1145 10.8481 33.8382 11.5164L28.3071 7.82178C26.6729 6.73024 24.4787 6.94764 23.09 8.33914L20.2953 11.1395C18.9066 12.531 18.6895 14.7292 19.7789 16.3664L23.4664 21.9084C22.7993 23.1873 22.2457 24.526 21.8141 25.9041L15.2961 27.2101C13.3703 27.5962 11.9724 29.3044 11.9724 31.2724V35.2322C11.9724 37.2001 13.3701 38.9086 15.2961 39.2945L19.5162 40.14C20.182 40.2731 20.8294 39.8408 20.9625 39.1738C21.0955 38.5069 20.6638 37.858 19.9982 37.7247L15.7781 36.8792C14.9975 36.7231 14.4308 36.0302 14.4308 35.2325V31.2727C14.4308 30.475 14.9975 29.7821 15.7781 29.6258L23.0224 28.1741C23.4761 28.0832 23.8404 27.7447 23.9651 27.2982C24.4372 25.6072 25.1123 23.9752 25.971 22.4475C26.1982 22.0435 26.1795 21.5458 25.9228 21.1599L21.8244 15.0002C21.3827 14.3365 21.4709 13.4451 22.0339 12.8813L24.8287 10.0809C25.3917 9.51676 26.281 9.42871 26.9435 9.87127L33.0912 13.9775C33.4762 14.2348 33.9729 14.2534 34.3763 14.026C35.9012 13.1654 37.5299 12.4893 39.2175 12.0163C39.6631 11.8913 40.0008 11.5265 40.0918 11.0717L41.5406 3.81332C41.6968 3.03103 42.388 2.46325 43.1841 2.46325H47.1365C47.9327 2.46325 48.624 3.03103 48.78 3.81332L50.2289 11.0717C50.3196 11.5265 50.6575 11.8913 51.1031 12.0163C52.7906 12.4893 54.4194 13.1654 55.9443 14.026C56.3477 14.2534 56.8443 14.2348 57.2294 13.9775L63.3773 9.87111C64.0397 9.42855 64.9292 9.51661 65.4921 10.081L68.2867 12.8811C68.8499 13.4454 68.9378 14.3365 68.4962 15.0002L64.3978 21.1599C64.141 21.5458 64.1223 22.0435 64.3496 22.4475C65.2084 23.9752 65.8833 25.6072 66.3556 27.2982C66.4802 27.7447 66.8445 28.083 67.2983 28.1741L74.5425 29.6258C75.3233 29.7821 75.8898 30.475 75.8898 31.2727V35.2325C75.8898 36.0302 75.3231 36.7231 74.5425 36.8794L67.2983 38.3311C66.8445 38.422 66.4802 38.7605 66.3556 39.2069C65.8835 40.8976 65.2085 42.5295 64.3496 44.0575C64.1225 44.4617 64.1412 44.9592 64.3978 45.3451L68.4962 51.5048C68.9379 52.1686 68.8497 53.06 68.2867 53.6238L65.4919 56.4242C64.9289 56.9883 64.0397 57.0763 63.3771 56.6338L57.2294 52.5275C56.6647 52.1502 55.9014 52.303 55.525 52.8691C55.1483 53.4349 55.3012 54.1996 55.8659 54.5768L62.0136 58.6833C62.7102 59.1487 63.5083 59.3761 64.3029 59.3761C65.3718 59.3761 66.4339 58.9642 67.2304 58.1659L70.0252 55.3655C71.4139 53.974 71.631 51.7759 70.5416 50.1386L66.8541 44.5967C67.5212 43.3176 68.0748 41.9789 68.5064 40.601L75.0244 39.2951C76.9502 38.909 78.3481 37.2007 78.3481 35.2328V31.273C78.3479 29.3047 76.9502 27.5965 75.0242 27.2103Z" fill="#6F9CD6"/>
<path d="M49.2575 42.6949H37.7851C37.1062 42.6949 36.5559 43.246 36.5559 43.9264C36.5559 44.6068 37.1063 45.1579 37.7851 45.1579H49.2575C50.3872 45.1579 51.3061 46.0787 51.3061 47.2106V48.8527C51.3061 49.9847 50.3872 50.9054 49.2575 50.9054H37.7851C37.1062 50.9054 36.5559 51.4568 36.5559 52.137C36.5559 52.8173 37.1063 53.3685 37.7851 53.3685H49.2575C50.3872 53.3685 51.3061 54.2893 51.3061 55.4212V57.0633C51.3061 58.1952 50.3872 59.116 49.2575 59.116H37.7851C37.1062 59.116 36.5559 59.6672 36.5559 60.3475C36.5559 61.0279 37.1063 61.5791 37.7851 61.5791H49.2575C50.3872 61.5791 51.3061 62.4998 51.3061 63.6318V65.2739C51.3061 66.4058 50.3872 67.3265 49.2575 67.3265H37.7851C37.1062 67.3265 36.5559 67.8777 36.5559 68.5581C36.5559 69.2385 37.1063 69.7896 37.7851 69.7896H49.2575C50.3872 69.7896 51.3061 70.7104 51.3061 71.8423V73.4844C51.3061 74.6163 50.3872 75.5371 49.2575 75.5371H26.9917C25.8295 75.5371 24.7356 75.0847 23.9119 74.2635C22.6114 72.9671 20.8948 72.2529 19.0783 72.2529H16.0696V58.7056C16.0696 58.0252 15.5192 57.474 14.8404 57.474C14.1617 57.474 13.6113 58.0252 13.6113 58.7056V75.1266C13.6113 75.3529 13.4275 75.5371 13.2015 75.5371H9.51394V58.7053C9.51394 58.0249 8.96353 57.4737 8.2848 57.4737C7.60606 57.4737 7.05565 58.0249 7.05565 58.7053V75.5368H3.36806C3.14227 75.5368 2.95829 75.3528 2.95829 75.1262V47.2106C2.95829 46.9842 3.14212 46.8001 3.36806 46.8001H13.2015C13.4273 46.8001 13.6113 46.9841 13.6113 47.2106V53.7791C13.6113 54.4594 14.1617 55.0106 14.8404 55.0106C15.5192 55.0106 16.0696 54.4594 16.0696 53.7791V50.0843H19.0333C20.9761 50.0843 22.6944 48.8433 23.309 46.9966L23.7665 45.6206C25.1842 41.3603 25.9029 36.9229 25.9029 32.4316C25.9029 31.2997 26.8219 30.3789 27.9516 30.3789C28.9367 30.3789 29.8627 30.7633 30.5592 31.4612C31.2557 32.1591 31.6392 33.0868 31.6392 34.0739V47.2103C31.6392 47.8905 32.1896 48.4419 32.8683 48.4419C33.5472 48.4419 34.0975 47.8907 34.0975 47.2103V34.0739C34.0975 32.429 33.4583 30.8824 32.2974 29.7193C31.1365 28.5561 29.5931 27.9155 27.9513 27.9155C25.4661 27.9155 23.4443 29.9414 23.4443 32.4313C23.4443 36.6573 22.768 40.8326 21.4341 44.8414L20.9763 46.2173C20.697 47.0568 19.9161 47.6209 19.0328 47.6209H16.0696V47.2103C16.0696 45.6258 14.7828 44.3367 13.2015 44.3367H3.36806C1.78677 44.337 0.5 45.6261 0.5 47.2106V75.1264C0.5 76.7108 1.78677 78.0001 3.36806 78.0001H13.2015C14.783 78.0001 16.0696 76.7108 16.0696 75.1264V74.7158H19.0781C20.2404 74.7158 21.3412 75.1753 22.1778 76.0094C23.4655 77.293 25.1751 78.0001 26.9916 78.0001H49.2575C51.7427 78.0001 53.7644 75.9742 53.7644 73.4843V71.8422C53.7644 70.5495 53.2195 69.382 52.3478 68.5579C53.2195 67.7339 53.7644 66.5664 53.7644 65.2737V63.6316C53.7644 62.339 53.2195 61.1714 52.3478 60.3474C53.2195 59.5233 53.7644 58.3558 53.7644 57.0632V55.421C53.7644 54.1284 53.2195 52.9608 52.3478 52.1368C53.2195 51.3128 53.7644 50.1452 53.7644 48.8526V47.2105C53.7644 44.7207 51.7427 42.6949 49.2575 42.6949Z" fill="#6F9CD6"/>
<path fill-rule="evenodd" clip-rule="evenodd" d="M46.1329 39.4989C45.8048 39.5503 45.4785 39.5751 45.1563 39.5751C42.103 39.5749 39.4115 37.3428 38.9262 34.2275C38.3896 30.7837 40.7495 27.5443 44.187 27.0066C47.6235 26.4686 50.8573 28.8337 51.3937 32.2779C51.9303 35.7218 49.5704 38.9612 46.1329 39.4989ZM48.9651 32.6575C48.6376 30.5554 46.6644 29.1136 44.5662 29.4402C42.4682 29.7684 41.0277 31.7456 41.3553 33.8478C41.6828 35.9498 43.6562 37.3933 45.7541 37.0651C47.8521 36.7368 49.2926 34.7596 48.9651 32.6575Z" fill="#6F9CD6"/>
<path d="M56.2752 45.1579C56.5989 45.1579 56.9218 45.0307 57.1633 44.7779C60.7793 40.9922 62.3909 35.8552 61.5854 30.684C61.1761 28.057 60.1854 25.6395 58.6401 23.499C58.2424 22.9481 57.4741 22.8241 56.9237 23.2228C56.3737 23.6215 56.2502 24.3913 56.648 24.9426C57.9635 26.7653 58.8075 28.8248 59.1563 31.0638C59.8426 35.4703 58.4689 39.8482 55.3871 43.075C54.9177 43.5664 54.9347 44.346 55.4252 44.8163C55.6636 45.0445 55.9697 45.1579 56.2752 45.1579Z" fill="#6F9CD6"/>
<path d="M55.4108 21.6782C55.8195 21.1351 55.7114 20.3629 55.1692 19.9535C51.5447 17.2156 47.0794 16.0931 42.5963 16.7954C37.4519 17.5998 33.0675 20.6895 30.5671 25.2724C30.2414 25.8693 30.4604 26.6175 31.0559 26.944C31.2431 27.0465 31.4452 27.0952 31.6445 27.0951C32.0794 27.0951 32.5008 26.8634 32.724 26.4542C34.8553 22.5481 38.5917 19.9147 42.9753 19.2293C46.7957 18.6313 50.6006 19.5876 53.6892 21.9206C54.2315 22.3296 55.0022 22.2215 55.4108 21.6782Z" fill="#6F9CD6"/>
</svg>
