<svg width="91" height="81" viewBox="0 0 91 81" fill="none" xmlns="http://www.w3.org/2000/svg">
<path fill-rule="evenodd" clip-rule="evenodd" d="M30.8175 66.1938C30.8175 58.1979 37.3655 51.6937 45.4153 51.6937C53.4647 51.6937 60.0131 58.1979 60.0131 66.1938C60.0131 74.1898 53.4651 80.694 45.4153 80.694C37.3655 80.694 30.8175 74.1898 30.8175 66.1938ZM34.0616 66.1934C34.0616 72.4113 39.1556 77.4712 45.4153 77.4712C51.675 77.4712 56.769 72.4113 56.769 66.1934C56.769 59.9756 51.675 54.9156 45.4153 54.9156C39.1556 54.9156 34.0616 59.9756 34.0616 66.1934Z" fill="#6F9CD6"/>
<path fill-rule="evenodd" clip-rule="evenodd" d="M55.1472 38.8041C55.1472 44.1349 50.7819 48.4709 45.4153 48.4709C40.0486 48.4709 35.6834 44.1349 35.6834 38.8041C35.6834 33.4734 40.0486 29.1373 45.4153 29.1373C50.7819 29.1373 55.1472 33.4734 55.1472 38.8041ZM51.9031 38.8041C51.9031 35.2499 48.9934 32.3597 45.4153 32.3597C41.8367 32.3597 38.9275 35.2499 38.9275 38.8041C38.9275 42.3583 41.8371 45.2485 45.4153 45.2485C48.9934 45.2485 51.9031 42.3583 51.9031 38.8041Z" fill="#6F9CD6"/>
<path fill-rule="evenodd" clip-rule="evenodd" d="M60.0127 48.4709C60.0127 43.1401 64.3779 38.8041 69.7446 38.8041C75.1112 38.8041 79.4764 43.1409 79.4764 48.4709C79.4764 53.8016 75.1112 58.1376 69.7446 58.1376C64.3779 58.1376 60.0127 53.8016 60.0127 48.4709ZM63.2568 48.4709C63.2568 52.0251 66.1664 54.9153 69.7446 54.9153C73.3227 54.9153 76.2324 52.0251 76.2324 48.4709C76.2324 44.9166 73.3227 42.0265 69.7446 42.0265C66.1664 42.0265 63.2568 44.9166 63.2568 48.4709Z" fill="#6F9CD6"/>
<path fill-rule="evenodd" clip-rule="evenodd" d="M11.3537 48.4709C11.3537 43.1401 15.7189 38.8041 21.0856 38.8041C26.4518 38.8041 30.8174 43.1409 30.8174 48.4709C30.8174 53.8016 26.4522 58.1376 21.0856 58.1376C15.7189 58.1376 11.3537 53.8016 11.3537 48.4709ZM14.5978 48.4709C14.5978 52.0251 17.5074 54.9153 21.0856 54.9153C24.6637 54.9153 27.5734 52.0251 27.5734 48.4709C27.5734 44.9166 24.6637 42.0265 21.0856 42.0265C17.5074 42.0265 14.5978 44.9166 14.5978 48.4709Z" fill="#6F9CD6"/>
<path fill-rule="evenodd" clip-rule="evenodd" d="M51.9031 19.4713C51.9031 23.0255 48.9935 25.9157 45.4153 25.9157C41.8367 25.9157 38.9271 23.0259 38.9271 19.4713C38.9271 15.9167 41.8372 13.0269 45.4153 13.0269C48.9935 13.0269 51.9031 15.9171 51.9031 19.4713ZM48.6594 19.4713C48.6594 17.6948 47.2034 16.2489 45.4153 16.2489C43.6268 16.2489 42.1712 17.6944 42.1712 19.4713C42.1712 21.2478 43.6272 22.6937 45.4153 22.6937C47.2038 22.6937 48.6594 21.2478 48.6594 19.4713Z" fill="#6F9CD6"/>
<path fill-rule="evenodd" clip-rule="evenodd" d="M72.9887 24.3043C72.9887 27.8585 70.079 30.7487 66.5009 30.7487C62.9224 30.7487 60.0131 27.8585 60.0131 24.3043C60.0131 20.7501 62.9227 17.8599 66.5009 17.8599C70.079 17.8599 72.9887 20.7501 72.9887 24.3043ZM69.745 24.3047C69.745 22.5282 68.289 21.0823 66.5009 21.0823C64.7125 21.0823 63.2568 22.5282 63.2568 24.3047C63.2568 26.0812 64.7128 27.5271 66.5009 27.5271C68.2894 27.5271 69.745 26.0812 69.745 24.3047Z" fill="#6F9CD6"/>
<path fill-rule="evenodd" clip-rule="evenodd" d="M30.8174 24.3043C30.8174 27.8585 27.9078 30.7487 24.3297 30.7487C20.7511 30.7487 17.8415 27.8581 17.8415 24.3039C17.8415 20.7497 20.7515 17.8595 24.3297 17.8595C27.9078 17.8595 30.8174 20.7501 30.8174 24.3043ZM27.5737 24.3047C27.5737 22.5281 26.1177 21.0823 24.3297 21.0823C22.5412 21.0823 21.0856 22.5281 21.0856 24.3047C21.0856 26.0812 22.5412 27.5271 24.3297 27.5271C26.1182 27.5271 27.5737 26.0812 27.5737 24.3047Z" fill="#6F9CD6"/>
<path fill-rule="evenodd" clip-rule="evenodd" d="M50.2812 4.97073C50.2812 7.63589 48.0984 9.80411 45.4153 9.80411C42.7318 9.80411 40.5494 7.63629 40.5494 4.97073C40.5494 2.30554 42.7322 0.137329 45.4153 0.137329C48.0984 0.137329 50.2812 2.30554 50.2812 4.97073ZM47.0372 4.9707C47.0372 4.08167 46.3104 3.35971 45.4153 3.35971C44.5203 3.35971 43.7935 4.08206 43.7935 4.9707C43.7935 5.85974 44.5203 6.5817 45.4153 6.5817C46.3104 6.5817 47.0372 5.85974 47.0372 4.9707Z" fill="#6F9CD6"/>
<path fill-rule="evenodd" clip-rule="evenodd" d="M19.4637 11.4156C19.4637 14.0807 17.2809 16.2489 14.5978 16.2489C11.9143 16.2489 9.73187 14.0807 9.73187 11.4156C9.73187 8.75037 11.9147 6.58215 14.5978 6.58215C17.2809 6.58215 19.4637 8.75037 19.4637 11.4156ZM16.2197 11.4151C16.2197 10.5261 15.4929 9.80414 14.5978 9.80414C13.7028 9.80414 12.9756 10.5265 12.976 11.4151C12.976 12.3042 13.7028 13.0261 14.5978 13.0261C15.4929 13.0261 16.2197 12.3042 16.2197 11.4151Z" fill="#6F9CD6"/>
<path fill-rule="evenodd" clip-rule="evenodd" d="M79.4765 11.4156C79.4765 14.0807 77.2937 16.2489 74.6106 16.2489C71.9274 16.2489 69.7446 14.0807 69.7446 11.4156C69.7446 8.75037 71.9274 6.58215 74.6106 6.58215C77.2937 6.58215 79.4765 8.75037 79.4765 11.4156ZM76.2324 11.4151C76.2324 10.5261 75.5056 9.80414 74.6105 9.80414C73.7155 9.80414 72.9887 10.5265 72.9887 11.4151C72.9887 12.3042 73.7155 13.0261 74.6105 13.0261C75.5056 13.0261 76.2324 12.3042 76.2324 11.4151Z" fill="#6F9CD6"/>
<path fill-rule="evenodd" clip-rule="evenodd" d="M77.8546 35.5821C77.8546 32.0279 80.7642 29.1377 84.3424 29.1377C87.9205 29.1377 90.8302 32.0275 90.8302 35.5817C90.8302 39.1359 87.9205 42.0261 84.3424 42.0261C80.7642 42.0261 77.8546 39.1363 77.8546 35.5821ZM81.0983 35.5817C81.0983 37.3582 82.5543 38.8041 84.3424 38.8041C86.1305 38.8041 87.5861 37.3582 87.5865 35.5817C87.5865 33.8052 86.1305 32.3593 84.3424 32.3593C82.554 32.3593 81.0983 33.8056 81.0983 35.5817Z" fill="#6F9CD6"/>
<path fill-rule="evenodd" clip-rule="evenodd" d="M0 35.5821C0 32.0275 2.90961 29.1377 6.48779 29.1377C10.0659 29.1377 12.9756 32.0279 12.9756 35.5821C12.9756 39.1363 10.0659 42.0265 6.48779 42.0265C2.90961 42.0265 0 39.1367 0 35.5821ZM3.24371 35.5817C3.24371 37.3582 4.69971 38.8041 6.48779 38.8041C8.27631 38.8041 9.73187 37.3582 9.73187 35.5817C9.73187 33.8052 8.27631 32.3593 6.48779 32.3593C4.69934 32.3593 3.24371 33.8056 3.24371 35.5817Z" fill="#6F9CD6"/>
</svg>
