<svg width="102" height="78" viewBox="0 0 102 78" fill="none" xmlns="http://www.w3.org/2000/svg">
<path fill-rule="evenodd" clip-rule="evenodd" d="M100.396 60.7342L2.10684 42.8858C1.12851 42.6994 0.206146 43.3527 0.0290833 44.322C-0.147125 45.2913 0.496552 46.2203 1.46793 46.3963L48.7682 54.9856L37.7851 66.9519H29.4749C27.5109 66.9519 25.9128 68.5606 25.9128 70.5391V74.0738C25.9128 76.0523 27.5105 77.661 29.4749 77.661H74.1765C76.1406 77.661 77.7387 76.0523 77.7387 74.0738V70.5391C77.7387 68.5606 76.141 66.9519 74.1765 66.9519H65.8659L56.1065 56.3186L99.7573 64.2451C99.8654 64.2659 99.9726 64.2746 100.078 64.2746C100.925 64.2746 101.678 63.6716 101.835 62.8085C102.012 61.8392 101.368 60.9102 100.396 60.7342ZM74.1644 70.5391L74.1765 74.0911L29.4871 74.0738V70.5391L29.4749 70.5217L74.1644 70.5391ZM42.6347 66.9519H61.0168L51.826 56.9368L42.6347 66.9519Z" fill="#6F9CD6"/>
<path fill-rule="evenodd" clip-rule="evenodd" d="M31.2741 12.6976C31.2741 19.5858 25.6623 25.1914 18.7645 25.1914C11.8667 25.1914 6.25497 19.5863 6.25497 12.6976C6.25497 5.80886 11.8667 0.203308 18.7645 0.203308C25.6623 0.203308 31.2741 5.8093 31.2741 12.6976ZM27.7002 12.6976C27.7002 7.77695 23.6913 3.77316 18.7645 3.77316C13.8377 3.77316 9.82889 7.77695 9.82889 12.6976C9.82889 17.6182 13.8377 21.622 18.7645 21.622C23.6913 21.622 27.7002 17.6182 27.7002 12.6976Z" fill="#6F9CD6"/>
<path fill-rule="evenodd" clip-rule="evenodd" d="M100.97 31.2547C100.97 40.1128 93.7549 47.3183 84.8865 47.3183C76.0182 47.3183 68.8027 40.1128 68.8027 31.2547C68.8027 22.3966 76.0182 15.191 84.8865 15.191C93.7549 15.191 100.97 22.3966 100.97 31.2547ZM97.3961 31.2547C97.3961 24.3664 91.7844 18.7608 84.8865 18.7608C77.9888 18.7608 72.377 24.3664 72.377 31.2547C72.377 38.1429 77.9888 43.7485 84.8865 43.7485C91.7844 43.7485 97.3961 38.1429 97.3961 31.2547Z" fill="#6F9CD6"/>
<path d="M79.8317 37.7181C80.2892 37.7181 80.7462 37.5438 81.0952 37.1953L84.7012 33.5942L88.0455 36.9339C88.3945 37.2824 88.852 37.4567 89.309 37.4567C89.7661 37.4567 90.2235 37.2824 90.5725 36.9339C91.2704 36.2368 91.2704 35.1071 90.5725 34.4101L87.2282 31.0704L89.9405 28.3619C90.6385 27.6649 90.6385 26.5352 89.9405 25.8381C89.2426 25.141 88.1115 25.141 87.4135 25.8381L84.7012 28.5466L81.7272 25.5763C81.0292 24.8792 79.8981 24.8792 79.2002 25.5763C78.5018 26.2733 78.5022 27.403 79.2002 28.1001L82.1742 31.0704L78.5682 34.6715C77.8703 35.3685 77.8703 36.4982 78.5682 37.1953C78.9172 37.5434 79.3746 37.7181 79.8317 37.7181Z" fill="#6F9CD6"/>
</svg>
