<svg width="86" height="86" viewBox="0 0 86 86" fill="none" xmlns="http://www.w3.org/2000/svg">
<path fill-rule="evenodd" clip-rule="evenodd" d="M32.594 31.1122H53.3354C54.1537 31.1122 54.8169 31.775 54.8169 32.594V53.3351C54.8169 54.1537 54.1537 54.8165 53.3354 54.8165H32.594C31.7761 54.8165 31.1125 54.1541 31.1125 53.3351V32.5936C31.1125 31.775 31.7757 31.1122 32.594 31.1122ZM34.0754 51.854H51.8541V34.0754H34.0754V51.854Z" fill="#6F9CD6"/>
<path fill-rule="evenodd" clip-rule="evenodd" d="M77.3133 57.7801C77.9268 56.0591 79.5561 54.8169 81.4848 54.8169C83.9356 54.8169 85.9288 56.8111 85.9288 59.2619C85.9288 61.7127 83.9349 63.7066 81.4841 63.7066C79.5551 63.7066 77.9261 62.4641 77.3126 60.7433H60.7426V77.3133C62.4637 77.9268 63.7059 79.5561 63.7059 81.4848C63.7059 83.9356 61.712 85.9295 59.2612 85.9295C56.8104 85.9295 54.8165 83.9356 54.8165 81.4848C54.8165 79.5561 56.059 77.9268 57.7798 77.3133V60.7433H28.149V77.3129C29.8701 77.9264 31.1122 79.5558 31.1122 81.4845C31.1122 83.9353 29.1183 85.9291 26.6675 85.9291C24.2167 85.9291 22.2229 83.9353 22.2229 81.4845C22.2229 79.5558 23.4654 77.9264 25.1861 77.3129V60.743H8.61621C8.00269 62.4641 6.37335 63.7062 4.44464 63.7062C1.99384 63.7062 0 61.7124 0 59.2616C0 56.8107 1.99384 54.8169 4.44464 54.8165C6.37335 54.8165 8.00269 56.0591 8.61621 57.7798H25.1861V28.149H8.61621C8.00269 29.8701 6.37335 31.1122 4.44464 31.1122C1.99384 31.1122 0 29.1184 0 26.6675C0 24.2167 1.99384 22.2233 4.44464 22.2229C6.37335 22.2229 8.00269 23.4654 8.61621 25.1861H25.1865V8.61618C23.4654 8.00269 22.2233 6.37335 22.2233 4.44464C22.2233 1.99384 24.2167 0 26.6675 0C29.1187 0 31.1122 1.99384 31.1125 4.44464C31.1125 6.37335 29.8701 8.00269 28.1494 8.61618V25.1861H57.7802V8.61618C56.059 8.00269 54.8169 6.37335 54.8169 4.44464C54.8169 1.99384 56.8107 0 59.2615 0C61.7124 0 63.7062 1.99384 63.7065 4.44464C63.7065 6.37335 62.4641 8.00269 60.7433 8.61618V25.1865H77.3133C77.9268 23.4654 79.5561 22.2233 81.4848 22.2233C83.9356 22.2233 85.9294 24.2171 85.9294 26.6679C85.9294 29.1187 83.9356 31.1126 81.4848 31.1126C79.5557 31.1126 77.9268 29.8701 77.3133 28.1494H60.7433V57.7801H77.3133ZM82.9663 26.6676C82.9663 25.85 82.3017 25.1861 81.4849 25.1861C80.668 25.1861 80.0034 25.85 80.0034 26.6676C80.0034 27.4851 80.668 28.149 81.4849 28.149C82.3017 28.149 82.9663 27.4851 82.9663 26.6676ZM4.44464 28.1494C3.62781 28.1494 2.9632 27.4855 2.9632 26.6679C2.9632 25.8504 3.62781 25.1865 4.44464 25.1865C5.26147 25.1865 5.92609 25.8504 5.92609 26.6679C5.92609 27.4855 5.26147 28.1494 4.44464 28.1494ZM2.9632 59.2619C2.9632 60.0795 3.62781 60.7433 4.44464 60.7433C5.26147 60.7433 5.92609 60.0795 5.92609 59.2619C5.92609 58.4444 5.26147 57.7805 4.44464 57.7805C3.62781 57.7805 2.9632 58.4444 2.9632 59.2619ZM26.6675 82.9662C25.8507 82.9662 25.1861 82.3024 25.1861 81.4848C25.1861 80.6673 25.8507 80.0034 26.6675 80.0034C27.4844 80.0034 28.149 80.6673 28.149 81.4848C28.1493 82.3024 27.4844 82.9662 26.6675 82.9662ZM25.1861 4.44467C25.1861 5.26221 25.8507 5.92609 26.6675 5.92609C27.4844 5.92609 28.149 5.26221 28.149 4.44467C28.149 3.62711 27.4844 2.96323 26.6675 2.96323C25.8511 2.96323 25.1861 3.62711 25.1861 4.44467ZM28.1494 57.7801V28.1494H57.7802V57.7801H28.1494ZM59.2616 82.9662C60.0784 82.9662 60.7433 82.3024 60.743 81.4848C60.743 80.6673 60.0784 80.0034 59.2616 80.0034C58.4448 80.0034 57.7802 80.6673 57.7802 81.4848C57.7802 82.3024 58.4448 82.9662 59.2616 82.9662ZM59.2616 5.92609C58.4448 5.92609 57.7802 5.26221 57.7802 4.44467C57.7802 3.62711 58.4448 2.96323 59.2616 2.96323C60.0784 2.96323 60.743 3.62711 60.743 4.44467C60.743 5.26221 60.0784 5.92609 59.2616 5.92609ZM80.0034 59.2619C80.0034 60.0795 80.668 60.7433 81.4849 60.7433C82.3017 60.7433 82.9663 60.0795 82.9663 59.2619C82.9663 58.4444 82.3017 57.7805 81.4849 57.7805C80.668 57.7805 80.0034 58.4444 80.0034 59.2619Z" fill="#6F9CD6"/>
</svg>
