<svg width="97" height="83" viewBox="0 0 97 83" fill="none" xmlns="http://www.w3.org/2000/svg">
<path fill-rule="evenodd" clip-rule="evenodd" d="M80.4178 73.9346H15.3607V9.18503H80.4178V73.9346ZM76.8038 12.782H18.9751V70.3377H76.8038V12.782Z" fill="#6F9CD6"/>
<path d="M26.2036 36.1644H29.8181V23.5737H42.468V19.9763H26.2036V36.1644Z" fill="#FFFFFF"/>
<path d="M65.9609 59.5459H53.3109V63.1438H69.5749V46.9557H65.9609V59.5459Z" fill="#FFFFFF"/>
<path d="M29.8181 46.9557H26.2036V63.1438H42.468V59.5459H29.8181V46.9557Z" fill="#FFFFFF"/>
<path d="M53.3109 23.5737H65.9609V36.1644H69.5749V19.9763H53.3109V23.5737Z" fill="#FFFFFF"/>
<path fill-rule="evenodd" clip-rule="evenodd" d="M96.6822 10.9831V14.5805H89.4537V25.3727H96.6822V28.9701H89.4537V39.7614H96.6822V43.3588H89.4537V54.1505H96.6822V57.7479H89.4537V68.5397H96.6822V72.1371H88.9793C87.3707 78.3328 81.724 82.9288 75.0034 82.9288H20.7751C14.0545 82.9288 8.40784 78.3324 6.79922 72.1371H0V68.5397H6.3252V57.7479H0V54.1505H6.3252V43.3588H0V39.7614H6.3252V28.9696H0V25.3722H6.3252V14.5805H0V10.9831H6.79922C8.40784 4.78736 14.0545 0.191345 20.7751 0.191345H75.0034C81.724 0.191345 87.3707 4.7878 88.9793 10.9831H96.6822ZM84.9355 25.3722H85.8393V14.5805H84.9355V10.9831H85.209C83.718 6.79902 79.7129 3.78874 75.0034 3.78874H20.7751C16.066 3.78874 12.0609 6.79902 10.5699 10.9831H11.7466V14.5805H9.93964V25.3727H11.7466V28.9701H9.93964V39.7614H11.7466V43.3588H9.93964V54.1505H11.7466V57.7479H9.93964V68.5397H11.7466V72.1371H10.5699C12.0605 76.3211 16.0656 79.3314 20.7751 79.3314H75.0034C79.7129 79.3314 83.718 76.3211 85.209 72.1371H84.9355V68.5397H85.8393V57.7479H84.9355V54.1505H85.8393V43.3588H84.9355V39.7614H85.8393V28.9696H84.9355V25.3722Z" fill="#FFFFFF"/>
</svg>
