<svg width="91" height="66" viewBox="0 0 91 66" fill="none" xmlns="http://www.w3.org/2000/svg">
<path fill-rule="evenodd" clip-rule="evenodd" d="M71.475 29.5176C72.1843 24.8186 76.2154 21.2031 81.0824 21.2031C86.4479 21.2031 90.8118 25.5923 90.8118 30.9889C90.8118 36.3854 86.4475 40.7751 81.082 40.7751C76.3253 40.7751 72.3627 37.3227 71.523 32.7794H63.2693C62.5647 32.7794 61.9424 32.3223 61.7254 31.6484L56.4615 15.2139L49.2609 39.6496C49.0612 40.3235 48.4563 40.7941 47.758 40.8162C47.0864 40.8681 46.4244 40.4086 46.1837 39.7483L39.7398 22.0948L29.4243 64.0014C29.2435 64.7334 28.5912 65.2405 27.8516 65.2405C27.8169 65.2405 27.7807 65.2397 27.7456 65.2373C26.9634 65.1862 26.3281 64.5793 26.2395 63.795L20.1142 10.0645L9.37094 48.5334C9.1748 49.2346 8.54147 49.7194 7.81757 49.7234H7.80969C7.08893 49.7234 6.4556 49.2456 6.25276 48.5504L0.0656433 27.2723C-0.186035 26.4075 0.308258 25.502 1.16805 25.2488C2.02942 24.9937 2.92741 25.4917 3.17909 26.3564L7.77779 42.1738L19.2241 1.18985C19.4328 0.437561 20.1457 -0.0575867 20.9153 0.00537109C21.6885 0.0675659 22.3092 0.670502 22.3962 1.44534L28.438 54.4378L37.8639 16.1424C38.0348 15.4464 38.6382 14.9445 39.3491 14.9057C40.1029 14.8605 40.7142 15.3006 40.9596 15.9721L47.541 34.0043L54.8415 9.22983C55.044 8.54413 55.6667 8.07114 56.3776 8.06241C57.0637 8.06638 57.7222 8.51242 57.9408 9.19339L64.4513 29.5176H71.475ZM74.5959 30.9893C74.5959 34.5866 77.5049 37.5132 81.0823 37.5132C84.6598 37.5132 87.5688 34.5866 87.5688 30.9893C87.5688 27.3919 84.6598 24.4653 81.0823 24.4653C77.5049 24.4653 74.5959 27.3919 74.5959 30.9893Z" fill="#6F9CD6"/>
</svg>
